<svg width="1287" height="54" viewBox="0 0 1287 54" fill="none" xmlns="http://www.w3.org/2000/svg">
<g clip-path="url(#clip0_447_672)">
<path d="M70.6885 39.429C69.1045 39.429 67.6195 39.121 66.2335 38.505C64.8585 37.878 63.654 37.0145 62.62 35.9145C61.586 34.8035 60.7775 33.5275 60.1945 32.0865C59.6115 30.6345 59.32 29.0835 59.32 27.4335C59.32 25.7505 59.6225 24.183 60.2275 22.731C60.8325 21.279 61.663 20.014 62.719 18.936C63.775 17.847 64.985 17 66.349 16.395C67.724 15.79 69.1815 15.4875 70.7215 15.4875C72.4925 15.4875 74.1645 15.9 75.7375 16.725C77.3215 17.55 78.6635 18.7215 79.7635 20.2395L77.701 21.3615C76.821 20.2065 75.7595 19.321 74.5165 18.705C73.2845 18.089 72.014 17.781 70.705 17.781C69.462 17.781 68.2905 18.034 67.1905 18.54C66.1015 19.035 65.139 19.728 64.303 20.619C63.467 21.51 62.8125 22.5385 62.3395 23.7045C61.8665 24.8705 61.63 26.1245 61.63 27.4665C61.63 28.7975 61.8665 30.046 62.3395 31.212C62.8125 32.378 63.4615 33.4065 64.2865 34.2975C65.1225 35.1775 66.0905 35.8705 67.1905 36.3765C68.2905 36.8715 69.4675 37.119 70.7215 37.119C71.7555 37.119 72.7345 36.943 73.6585 36.591C74.5935 36.228 75.446 35.722 76.216 35.073C76.986 34.424 77.635 33.665 78.163 32.796C78.702 31.927 79.0925 30.981 79.3345 29.958H73.0975V27.8625H82.024C81.991 29.4575 81.672 30.9535 81.067 32.3505C80.462 33.7475 79.637 34.9795 78.592 36.0465C77.558 37.1025 76.3645 37.933 75.0115 38.538C73.6695 39.132 72.2285 39.429 70.6885 39.429ZM92.3445 39.429C90.8265 39.429 89.4405 39.0385 88.1865 38.2575C86.9435 37.4765 85.948 36.4315 85.2 35.1225C84.463 33.8025 84.0945 32.345 84.0945 30.75C84.0945 29.54 84.309 28.4125 84.738 27.3675C85.167 26.3115 85.7555 25.3875 86.5035 24.5955C87.2625 23.7925 88.1425 23.1655 89.1435 22.7145C90.1445 22.2635 91.2115 22.038 92.3445 22.038C93.5655 22.038 94.6875 22.28 95.7105 22.764C96.7445 23.248 97.63 23.9245 98.367 24.7935C99.115 25.6625 99.676 26.68 100.05 27.846C100.435 29.012 100.594 30.2715 100.528 31.6245H86.5365C86.6685 32.6695 86.9985 33.6045 87.5265 34.4295C88.0655 35.2545 88.7475 35.909 89.5725 36.393C90.4085 36.866 91.3325 37.108 92.3445 37.119C93.4445 37.119 94.4345 36.833 95.3145 36.261C96.2055 35.689 96.9205 34.9025 97.4595 33.9015L99.8025 34.446C99.1425 35.909 98.147 37.108 96.816 38.043C95.485 38.967 93.9945 39.429 92.3445 39.429ZM86.4705 29.76H98.202C98.125 28.737 97.8115 27.802 97.2615 26.955C96.7225 26.097 96.024 25.415 95.166 24.909C94.308 24.392 93.3675 24.1335 92.3445 24.1335C91.3215 24.1335 90.3865 24.3865 89.5395 24.8925C88.6925 25.3875 87.9995 26.064 87.4605 26.922C86.9215 27.769 86.5915 28.715 86.4705 29.76ZM116.775 14.25H119.085V39H116.775V35.9145C116.203 36.9705 115.417 37.823 114.416 38.472C113.426 39.11 112.249 39.429 110.885 39.429C109.686 39.429 108.564 39.2035 107.519 38.7525C106.474 38.3015 105.55 37.68 104.747 36.888C103.955 36.085 103.333 35.161 102.882 34.116C102.431 33.071 102.206 31.949 102.206 30.75C102.206 29.551 102.431 28.429 102.882 27.384C103.333 26.328 103.955 25.404 104.747 24.612C105.55 23.809 106.474 23.182 107.519 22.731C108.564 22.28 109.686 22.0545 110.885 22.0545C112.249 22.0545 113.426 22.379 114.416 23.028C115.417 23.666 116.203 24.5075 116.775 25.5525V14.25ZM110.901 37.185C112.078 37.185 113.09 36.899 113.937 36.327C114.784 35.744 115.433 34.963 115.884 33.984C116.346 33.005 116.577 31.927 116.577 30.75C116.577 29.54 116.346 28.451 115.884 27.483C115.422 26.504 114.768 25.7285 113.921 25.1565C113.074 24.5845 112.067 24.2985 110.901 24.2985C109.735 24.2985 108.674 24.59 107.717 25.173C106.76 25.745 105.995 26.5205 105.423 27.4995C104.851 28.4785 104.565 29.562 104.565 30.75C104.565 31.949 104.857 33.038 105.44 34.017C106.023 34.985 106.793 35.755 107.75 36.327C108.718 36.899 109.768 37.185 110.901 37.185ZM130.178 39.429C128.66 39.429 127.274 39.0385 126.02 38.2575C124.777 37.4765 123.782 36.4315 123.034 35.1225C122.297 33.8025 121.928 32.345 121.928 30.75C121.928 29.54 122.143 28.4125 122.572 27.3675C123.001 26.3115 123.589 25.3875 124.337 24.5955C125.096 23.7925 125.976 23.1655 126.977 22.7145C127.978 22.2635 129.045 22.038 130.178 22.038C131.696 22.038 133.077 22.4285 134.32 23.2095C135.574 23.9905 136.569 25.041 137.306 26.361C138.054 27.681 138.428 29.144 138.428 30.75C138.428 31.949 138.214 33.071 137.785 34.116C137.356 35.161 136.762 36.085 136.003 36.888C135.255 37.68 134.38 38.3015 133.379 38.7525C132.389 39.2035 131.322 39.429 130.178 39.429ZM130.178 37.119C131.3 37.119 132.307 36.8275 133.198 36.2445C134.1 35.6505 134.809 34.8695 135.326 33.9015C135.854 32.9335 136.118 31.883 136.118 30.75C136.118 29.595 135.854 28.5335 135.326 27.5655C134.798 26.5865 134.083 25.8055 133.181 25.2225C132.29 24.6395 131.289 24.348 130.178 24.348C129.056 24.348 128.044 24.645 127.142 25.239C126.251 25.822 125.542 26.5975 125.014 27.5655C124.497 28.5335 124.238 29.595 124.238 30.75C124.238 31.938 124.508 33.016 125.047 33.984C125.586 34.941 126.306 35.7055 127.208 36.2775C128.11 36.8385 129.1 37.119 130.178 37.119ZM141.094 39V14.25H143.404V39H141.094ZM158.198 22.5H160.64L151.614 47.25H149.156L152.159 39L146.235 22.5H148.76L153.314 35.8155L158.198 22.5Z" fill="#041E31" fill-opacity="0.67"/>
<path d="M39.8434 22.2691H33.941C32.6424 18.4031 28.4813 17.1345 26.5631 16.9835H4.13388C0.710488 16.2587 -0.0469874 13.3591 0.0021993 12H27.5959C34.2066 12.7249 38.5154 19.1481 39.8434 22.2691Z" fill="#041E31" fill-opacity="0.67"/>
<path d="M16.6766 21.816H4.57667C4.22253 25.6821 8.1673 27.1519 10.184 27.4036C9.59371 34.0484 16.6766 43.7134 25.3826 42.9583C38.8401 40.7837 40.6305 31.6824 39.8434 27.4036H28.1863V32.3872H33.941C30.547 38.5788 24.7924 38.1258 23.0217 37.5217C13.5778 34.0181 14.8567 25.5914 16.6766 21.816Z" fill="#041E31" fill-opacity="0.67"/>
<path d="M283.396 36.5V18.3H289.545C290.429 18.3 291.231 18.482 291.95 18.846C292.678 19.2013 293.254 19.7257 293.679 20.419C294.112 21.1037 294.329 21.9357 294.329 22.915C294.329 23.4697 294.229 23.9983 294.03 24.501C293.831 25.0037 293.571 25.4327 293.25 25.788C292.929 26.1347 292.583 26.36 292.21 26.464C292.747 26.6027 293.211 26.8453 293.601 27.192C293.991 27.53 294.312 27.933 294.563 28.401C294.814 28.8603 294.996 29.3457 295.109 29.857C295.23 30.3683 295.291 30.871 295.291 31.365C295.291 32.3877 295.066 33.2847 294.615 34.056C294.173 34.8273 293.579 35.4297 292.834 35.863C292.089 36.2877 291.261 36.5 290.351 36.5H283.396ZM285.216 34.875H290.208C290.841 34.875 291.413 34.7103 291.924 34.381C292.444 34.0517 292.856 33.601 293.159 33.029C293.471 32.457 293.627 31.8113 293.627 31.092C293.627 30.4507 293.471 29.8483 293.159 29.285C292.856 28.713 292.444 28.2537 291.924 27.907C291.413 27.5517 290.841 27.374 290.208 27.374H285.216V34.875ZM285.216 25.775H289.389C290.247 25.775 290.979 25.528 291.586 25.034C292.201 24.5313 292.509 23.8207 292.509 22.902C292.509 21.8967 292.201 21.1513 291.586 20.666C290.979 20.172 290.247 19.925 289.389 19.925H285.216V25.775ZM297.665 36.5V18.3H299.485V34.68H307.844V36.5H297.665ZM317.744 36.838C316.514 36.838 315.357 36.5953 314.273 36.11C313.19 35.616 312.237 34.9357 311.413 34.069C310.59 33.2023 309.944 32.2013 309.476 31.066C309.008 29.922 308.774 28.7 308.774 27.4C308.774 26.1 309.008 24.8823 309.476 23.747C309.944 22.603 310.59 21.5977 311.413 20.731C312.237 19.8643 313.19 19.1883 314.273 18.703C315.357 18.209 316.514 17.962 317.744 17.962C318.984 17.962 320.145 18.209 321.228 18.703C322.312 19.1883 323.265 19.8643 324.088 20.731C324.912 21.5977 325.553 22.603 326.012 23.747C326.48 24.8823 326.714 26.1 326.714 27.4C326.714 28.7 326.48 29.922 326.012 31.066C325.553 32.2013 324.912 33.2023 324.088 34.069C323.265 34.9357 322.312 35.616 321.228 36.11C320.145 36.5953 318.984 36.838 317.744 36.838ZM317.744 35.018C318.741 35.018 319.668 34.8187 320.526 34.42C321.393 34.0127 322.151 33.458 322.801 32.756C323.46 32.054 323.971 31.2437 324.335 30.325C324.708 29.4063 324.894 28.4313 324.894 27.4C324.894 26.36 324.708 25.3807 324.335 24.462C323.963 23.5347 323.447 22.7243 322.788 22.031C322.138 21.329 321.38 20.7787 320.513 20.38C319.655 19.9813 318.732 19.782 317.744 19.782C316.748 19.782 315.816 19.9857 314.949 20.393C314.091 20.7917 313.333 21.342 312.674 22.044C312.024 22.746 311.513 23.5563 311.14 24.475C310.776 25.3937 310.594 26.3687 310.594 27.4C310.594 28.4487 310.781 29.4323 311.153 30.351C311.526 31.2697 312.037 32.08 312.687 32.782C313.346 33.484 314.104 34.0343 314.962 34.433C315.829 34.823 316.756 35.018 317.744 35.018ZM335.837 36.838C334.866 36.838 333.926 36.6863 333.016 36.383C332.115 36.0797 331.326 35.6463 330.65 35.083C329.974 34.5197 329.497 33.848 329.22 33.068L330.923 32.431C331.114 32.9683 331.46 33.432 331.963 33.822C332.474 34.2033 333.068 34.498 333.744 34.706C334.429 34.914 335.126 35.018 335.837 35.018C336.669 35.018 337.445 34.8793 338.164 34.602C338.883 34.3247 339.464 33.939 339.906 33.445C340.348 32.9423 340.569 32.353 340.569 31.677C340.569 30.9923 340.339 30.429 339.88 29.987C339.421 29.545 338.827 29.1983 338.099 28.947C337.38 28.687 336.626 28.4877 335.837 28.349C334.598 28.1323 333.484 27.8377 332.496 27.465C331.517 27.0923 330.741 26.568 330.169 25.892C329.597 25.2073 329.311 24.306 329.311 23.188C329.311 22.1393 329.614 21.2293 330.221 20.458C330.828 19.6867 331.625 19.0887 332.613 18.664C333.61 18.2393 334.684 18.027 335.837 18.027C336.782 18.027 337.705 18.1743 338.606 18.469C339.507 18.7637 340.3 19.1927 340.985 19.756C341.678 20.3193 342.177 21.0083 342.48 21.823L340.751 22.447C340.56 21.901 340.209 21.4373 339.698 21.056C339.195 20.666 338.606 20.3713 337.93 20.172C337.254 19.964 336.556 19.86 335.837 19.86C335.014 19.8513 334.242 19.99 333.523 20.276C332.812 20.5533 332.236 20.9433 331.794 21.446C331.352 21.94 331.131 22.5207 331.131 23.188C331.131 23.968 331.335 24.5703 331.742 24.995C332.158 25.411 332.721 25.723 333.432 25.931C334.143 26.139 334.944 26.3253 335.837 26.49C336.998 26.6893 338.077 27.0013 339.074 27.426C340.071 27.842 340.872 28.401 341.479 29.103C342.086 29.7963 342.389 30.6543 342.389 31.677C342.389 32.717 342.086 33.627 341.479 34.407C340.872 35.1783 340.071 35.7763 339.074 36.201C338.086 36.6257 337.007 36.838 335.837 36.838ZM351.706 36.838C350.735 36.838 349.795 36.6863 348.885 36.383C347.984 36.0797 347.195 35.6463 346.519 35.083C345.843 34.5197 345.366 33.848 345.089 33.068L346.792 32.431C346.983 32.9683 347.329 33.432 347.832 33.822C348.343 34.2033 348.937 34.498 349.613 34.706C350.298 34.914 350.995 35.018 351.706 35.018C352.538 35.018 353.314 34.8793 354.033 34.602C354.752 34.3247 355.333 33.939 355.775 33.445C356.217 32.9423 356.438 32.353 356.438 31.677C356.438 30.9923 356.208 30.429 355.749 29.987C355.29 29.545 354.696 29.1983 353.968 28.947C353.249 28.687 352.495 28.4877 351.706 28.349C350.467 28.1323 349.353 27.8377 348.365 27.465C347.386 27.0923 346.61 26.568 346.038 25.892C345.466 25.2073 345.18 24.306 345.18 23.188C345.18 22.1393 345.483 21.2293 346.09 20.458C346.697 19.6867 347.494 19.0887 348.482 18.664C349.479 18.2393 350.553 18.027 351.706 18.027C352.651 18.027 353.574 18.1743 354.475 18.469C355.376 18.7637 356.169 19.1927 356.854 19.756C357.547 20.3193 358.046 21.0083 358.349 21.823L356.62 22.447C356.429 21.901 356.078 21.4373 355.567 21.056C355.064 20.666 354.475 20.3713 353.799 20.172C353.123 19.964 352.425 19.86 351.706 19.86C350.883 19.8513 350.111 19.99 349.392 20.276C348.681 20.5533 348.105 20.9433 347.663 21.446C347.221 21.94 347 22.5207 347 23.188C347 23.968 347.204 24.5703 347.611 24.995C348.027 25.411 348.59 25.723 349.301 25.931C350.012 26.139 350.813 26.3253 351.706 26.49C352.867 26.6893 353.946 27.0013 354.943 27.426C355.94 27.842 356.741 28.401 357.348 29.103C357.955 29.7963 358.258 30.6543 358.258 31.677C358.258 32.717 357.955 33.627 357.348 34.407C356.741 35.1783 355.94 35.7763 354.943 36.201C353.955 36.6257 352.876 36.838 351.706 36.838ZM369.541 36.838C368.311 36.838 367.154 36.5953 366.07 36.11C364.987 35.616 364.034 34.9357 363.21 34.069C362.387 33.2023 361.741 32.2013 361.273 31.066C360.805 29.922 360.571 28.7 360.571 27.4C360.571 26.1 360.805 24.8823 361.273 23.747C361.741 22.603 362.387 21.5977 363.21 20.731C364.034 19.8643 364.987 19.1883 366.07 18.703C367.154 18.209 368.311 17.962 369.541 17.962C370.781 17.962 371.942 18.209 373.025 18.703C374.109 19.1883 375.062 19.8643 375.885 20.731C376.709 21.5977 377.35 22.603 377.809 23.747C378.277 24.8823 378.511 26.1 378.511 27.4C378.511 28.7 378.277 29.922 377.809 31.066C377.35 32.2013 376.709 33.2023 375.885 34.069C375.062 34.9357 374.109 35.616 373.025 36.11C371.942 36.5953 370.781 36.838 369.541 36.838ZM369.541 35.018C370.538 35.018 371.465 34.8187 372.323 34.42C373.19 34.0127 373.948 33.458 374.598 32.756C375.257 32.054 375.768 31.2437 376.132 30.325C376.505 29.4063 376.691 28.4313 376.691 27.4C376.691 26.36 376.505 25.3807 376.132 24.462C375.76 23.5347 375.244 22.7243 374.585 22.031C373.935 21.329 373.177 20.7787 372.31 20.38C371.452 19.9813 370.529 19.782 369.541 19.782C368.545 19.782 367.613 19.9857 366.746 20.393C365.888 20.7917 365.13 21.342 364.471 22.044C363.821 22.746 363.31 23.5563 362.937 24.475C362.573 25.3937 362.391 26.3687 362.391 27.4C362.391 28.4487 362.578 29.4323 362.95 30.351C363.323 31.2697 363.834 32.08 364.484 32.782C365.143 33.484 365.901 34.0343 366.759 34.433C367.626 34.823 368.553 35.018 369.541 35.018ZM380.718 36.5L384.241 18.3H385.567L390.663 31.69L395.733 18.3H397.059L400.595 36.5H398.736L396.045 22.577L391.235 35.304H390.065L385.255 22.577L382.564 36.5H380.718Z" fill="#041E31" fill-opacity="0.67"/>
<path d="M497.411 35.9383C496.011 35.9383 494.778 35.5966 493.711 34.9133C492.653 34.2299 491.823 33.3133 491.223 32.1633C490.632 31.0049 490.336 29.7216 490.336 28.3133V18.1133H493.786V28.3133C493.786 29.0716 493.928 29.7674 494.211 30.4008C494.494 31.0341 494.907 31.5424 495.448 31.9258C495.99 32.3008 496.644 32.4883 497.411 32.4883C498.186 32.4883 498.84 32.3008 499.373 31.9258C499.915 31.5508 500.323 31.0466 500.598 30.4133C500.873 29.7799 501.011 29.0799 501.011 28.3133V18.1133H504.461V28.3133C504.461 29.3716 504.29 30.3633 503.948 31.2883C503.615 32.2049 503.136 33.0133 502.511 33.7133C501.886 34.4133 501.14 34.9591 500.273 35.3508C499.415 35.7424 498.461 35.9383 497.411 35.9383ZM507.608 35.6133V18.1133H511.333L518.158 29.3758V18.1133H521.608V35.6133H517.883L511.058 24.3508V35.6133H507.608ZM525.476 35.6133V18.1133H528.926V35.6133H525.476ZM540.903 35.9383C539.719 35.9383 538.607 35.7049 537.565 35.2383C536.524 34.7633 535.607 34.1091 534.815 33.2758C534.032 32.4424 533.415 31.4799 532.965 30.3883C532.524 29.2883 532.303 28.1133 532.303 26.8633C532.303 25.6049 532.524 24.4299 532.965 23.3383C533.415 22.2383 534.032 21.2758 534.815 20.4508C535.607 19.6174 536.524 18.9674 537.565 18.5008C538.607 18.0258 539.719 17.7883 540.903 17.7883C542.319 17.7883 543.624 18.1174 544.815 18.7758C546.007 19.4258 546.994 20.2966 547.778 21.3883L544.703 23.0508C544.236 22.5008 543.674 22.0633 543.015 21.7383C542.357 21.4049 541.653 21.2383 540.903 21.2383C540.194 21.2383 539.528 21.3841 538.903 21.6758C538.278 21.9674 537.728 22.3716 537.253 22.8883C536.786 23.4049 536.419 24.0008 536.153 24.6758C535.886 25.3508 535.753 26.0799 535.753 26.8633C535.753 27.6383 535.886 28.3674 536.153 29.0508C536.419 29.7258 536.786 30.3216 537.253 30.8383C537.728 31.3466 538.278 31.7508 538.903 32.0508C539.528 32.3424 540.194 32.4883 540.903 32.4883C541.661 32.4883 542.365 32.3216 543.015 31.9883C543.674 31.6549 544.236 31.2133 544.703 30.6633L547.778 32.3383C546.994 33.4216 546.007 34.2924 544.815 34.9508C543.624 35.6091 542.319 35.9383 540.903 35.9383Z" fill="#041E31" fill-opacity="0.67"/>
<path d="M590.105 35.6133V18.1133H600.48V21.5633H593.555V24.5133H599.28V27.9633H593.555V35.6133H590.105ZM606.807 18.1133H610.732L617.082 35.6133H613.42L612.37 32.7133H605.17L604.12 35.6133H600.457L606.807 18.1133ZM606.432 29.2633H611.107L608.757 22.8508L606.432 29.2633ZM626.769 35.9383C625.586 35.9383 624.473 35.7049 623.431 35.2383C622.39 34.7633 621.473 34.1091 620.681 33.2758C619.898 32.4424 619.281 31.4799 618.831 30.3883C618.39 29.2883 618.169 28.1133 618.169 26.8633C618.169 25.6049 618.39 24.4299 618.831 23.3383C619.281 22.2383 619.898 21.2758 620.681 20.4508C621.473 19.6174 622.39 18.9674 623.431 18.5008C624.473 18.0258 625.586 17.7883 626.769 17.7883C628.186 17.7883 629.49 18.1174 630.681 18.7758C631.873 19.4258 632.861 20.2966 633.644 21.3883L630.569 23.0508C630.102 22.5008 629.54 22.0633 628.881 21.7383C628.223 21.4049 627.519 21.2383 626.769 21.2383C626.061 21.2383 625.394 21.3841 624.769 21.6758C624.144 21.9674 623.594 22.3716 623.119 22.8883C622.652 23.4049 622.286 24.0008 622.019 24.6758C621.752 25.3508 621.619 26.0799 621.619 26.8633C621.619 27.6383 621.752 28.3674 622.019 29.0508C622.286 29.7258 622.652 30.3216 623.119 30.8383C623.594 31.3466 624.144 31.7508 624.769 32.0508C625.394 32.3424 626.061 32.4883 626.769 32.4883C627.527 32.4883 628.231 32.3216 628.881 31.9883C629.54 31.6549 630.102 31.2133 630.569 30.6633L633.644 32.3383C632.861 33.4216 631.873 34.2924 630.681 34.9508C629.49 35.6091 628.186 35.9383 626.769 35.9383ZM649.777 18.1133V21.5633H644.627V35.6133H641.177V21.5633H636.027V18.1133H649.777ZM659.898 35.9383C658.715 35.9383 657.603 35.7049 656.561 35.2383C655.519 34.7633 654.603 34.1091 653.811 33.2758C653.019 32.4424 652.398 31.4799 651.948 30.3883C651.498 29.2883 651.273 28.1133 651.273 26.8633C651.273 25.6133 651.498 24.4424 651.948 23.3508C652.398 22.2508 653.019 21.2841 653.811 20.4508C654.603 19.6174 655.519 18.9674 656.561 18.5008C657.603 18.0258 658.715 17.7883 659.898 17.7883C661.09 17.7883 662.207 18.0258 663.248 18.5008C664.29 18.9674 665.207 19.6174 665.998 20.4508C666.79 21.2841 667.407 22.2508 667.848 23.3508C668.298 24.4424 668.523 25.6133 668.523 26.8633C668.523 28.1133 668.298 29.2883 667.848 30.3883C667.407 31.4799 666.79 32.4424 665.998 33.2758C665.207 34.1091 664.29 34.7633 663.248 35.2383C662.207 35.7049 661.09 35.9383 659.898 35.9383ZM659.898 32.4883C660.607 32.4883 661.273 32.3424 661.898 32.0508C662.523 31.7508 663.073 31.3424 663.548 30.8258C664.023 30.3091 664.394 29.7133 664.661 29.0383C664.936 28.3633 665.073 27.6383 665.073 26.8633C665.073 26.0883 664.936 25.3633 664.661 24.6883C664.394 24.0049 664.023 23.4091 663.548 22.9008C663.073 22.3841 662.523 21.9799 661.898 21.6883C661.273 21.3883 660.607 21.2383 659.898 21.2383C659.19 21.2383 658.523 21.3883 657.898 21.6883C657.273 21.9799 656.723 22.3841 656.248 22.9008C655.773 23.4174 655.398 24.0133 655.123 24.6883C654.857 25.3633 654.723 26.0883 654.723 26.8633C654.723 27.6383 654.857 28.3674 655.123 29.0508C655.398 29.7258 655.773 30.3216 656.248 30.8383C656.723 31.3466 657.273 31.7508 657.898 32.0508C658.523 32.3424 659.19 32.4883 659.898 32.4883ZM671.219 35.6133V18.1133H678.169C679.119 18.1133 679.977 18.3549 680.744 18.8383C681.519 19.3133 682.131 19.9549 682.581 20.7633C683.04 21.5633 683.269 22.4508 683.269 23.4258C683.269 24.1924 683.135 24.9049 682.869 25.5633C682.602 26.2133 682.227 26.7841 681.744 27.2758C681.26 27.7674 680.698 28.1508 680.056 28.4258L684.219 35.6133H680.244L676.256 28.7383H674.669V35.6133H671.219ZM674.669 25.2883H677.756C678.131 25.2883 678.473 25.1966 678.781 25.0133C679.098 24.8216 679.348 24.5674 679.531 24.2508C679.723 23.9258 679.819 23.5674 679.819 23.1758C679.819 22.7924 679.723 22.4424 679.531 22.1258C679.348 21.8008 679.098 21.5424 678.781 21.3508C678.473 21.1591 678.131 21.0633 677.756 21.0633H674.669V25.2883ZM696.164 18.1133H700.239L694.189 27.7258V35.6133H690.739V27.7258L684.689 18.1133H688.764L692.464 23.9758L696.164 18.1133Z" fill="#041E31" fill-opacity="0.67"/>
<mask id="mask0_447_672" style="mask-type:luminance" maskUnits="userSpaceOnUse" x="559" y="17" width="20" height="20">
<path d="M578.606 17.6133H559.836V36.3853H578.606V17.6133Z" fill="white"/>
</mask>
<g mask="url(#mask0_447_672)">
<path d="M578.606 20.6722V33.3282L578.572 33.3562C578.551 33.3168 578.526 33.2796 578.498 33.2452C577.183 31.9279 575.868 30.6116 574.553 29.2962C574.18 28.9039 573.676 28.6617 573.136 28.6152C572.611 28.5773 572.09 28.7332 571.672 29.0535C571.254 29.3738 570.968 29.8362 570.868 30.3532C570.799 30.7064 570.821 31.0713 570.931 31.4139C571.041 31.7564 571.236 32.0655 571.498 32.3122L575.477 36.2912C575.503 36.3162 575.526 36.3442 575.562 36.3832H562.892L562.866 36.3512C562.901 36.332 562.935 36.3092 562.966 36.2832C564.299 34.9499 565.631 33.6166 566.96 32.2832C567.244 32.0038 567.445 31.6507 567.54 31.2635C567.635 30.8763 567.62 30.4704 567.497 30.0913C567.374 29.7121 567.147 29.3747 566.843 29.117C566.539 28.8593 566.169 28.6914 565.775 28.6322C565.445 28.5741 565.105 28.5984 564.786 28.7031C564.467 28.8077 564.18 28.9895 563.948 29.2322C562.615 30.5576 561.285 31.8862 559.96 33.2182C559.924 33.2552 559.893 33.2962 559.86 33.3362L559.836 33.3282V20.6552C559.876 20.6922 559.907 20.7202 559.936 20.7502L563.915 24.7302C564.165 24.9923 564.478 25.1865 564.824 25.2945C565.17 25.4026 565.538 25.421 565.892 25.348C566.247 25.2751 566.578 25.1131 566.853 24.8773C567.129 24.6416 567.339 24.3398 567.466 24.0002C567.625 23.6144 567.662 23.1891 567.573 22.7814C567.484 22.3738 567.272 22.0031 566.966 21.7192C565.651 20.3852 564.319 19.0642 562.992 17.7382C562.953 17.7046 562.912 17.6739 562.869 17.6462L562.895 17.6152H575.565C575.531 17.6532 575.509 17.6802 575.484 17.7042C574.151 19.0376 572.817 20.3726 571.484 21.7092C571.269 21.9027 571.095 22.1378 570.973 22.4003C570.851 22.6628 570.783 22.9473 570.774 23.2367C570.765 23.526 570.814 23.8142 570.919 24.0839C571.024 24.3537 571.183 24.5993 571.386 24.806C571.588 25.0128 571.831 25.1764 572.098 25.287C572.366 25.3975 572.653 25.4528 572.943 25.4495C573.232 25.4461 573.518 25.3842 573.783 25.2675C574.048 25.1508 574.286 24.9816 574.484 24.7702C575.817 23.4476 577.144 22.1212 578.463 20.7912C578.503 20.7468 578.54 20.7 578.574 20.6512L578.604 20.6732" fill="#041E31" fill-opacity="0.67"/>
</g>
<path d="M810.917 0L802.645 4.875V18.75L825.581 31.875V45.75L834.605 40.125V13.5L825.581 8.25V21.375L810.917 12.75V0Z" fill="#041E31" fill-opacity="0.67"/>
<path d="M797.005 22.125V8.25L787.605 13.875L787.981 40.5L797.005 45.75V32.625L811.293 40.5L810.917 54L819.941 48.75V35.25L797.005 22.125Z" fill="#041E31" fill-opacity="0.67"/>
<path d="M930.589 36.838C929.359 36.838 928.202 36.5953 927.118 36.11C926.035 35.616 925.082 34.9357 924.258 34.069C923.444 33.2023 922.802 32.2013 922.334 31.066C921.875 29.922 921.645 28.7 921.645 27.4C921.645 26.0913 921.875 24.8693 922.334 23.734C922.802 22.59 923.444 21.589 924.258 20.731C925.082 19.8643 926.035 19.1883 927.118 18.703C928.202 18.209 929.359 17.962 930.589 17.962C932.063 17.962 933.419 18.3043 934.658 18.989C935.898 19.665 936.925 20.5707 937.739 21.706L934.905 23.227C934.394 22.5943 933.757 22.0873 932.994 21.706C932.24 21.3247 931.439 21.134 930.589 21.134C929.792 21.134 929.042 21.2987 928.34 21.628C927.638 21.9487 927.023 22.3993 926.494 22.98C925.966 23.552 925.554 24.2193 925.259 24.982C924.965 25.736 924.817 26.542 924.817 27.4C924.817 28.2667 924.965 29.077 925.259 29.831C925.563 30.585 925.979 31.2523 926.507 31.833C927.036 32.405 927.647 32.8557 928.34 33.185C929.042 33.5057 929.792 33.666 930.589 33.666C931.456 33.666 932.262 33.4753 933.007 33.094C933.761 32.704 934.394 32.1927 934.905 31.56L937.739 33.094C936.925 34.2207 935.898 35.1263 934.658 35.811C933.419 36.4957 932.063 36.838 930.589 36.838ZM952.101 28.284V36.5H948.929V29.116C948.929 28.6047 948.803 28.141 948.552 27.725C948.3 27.3003 947.962 26.9667 947.538 26.724C947.122 26.4727 946.658 26.347 946.147 26.347C945.635 26.347 945.167 26.4727 944.743 26.724C944.327 26.9667 943.993 27.3003 943.742 27.725C943.499 28.141 943.378 28.6047 943.378 29.116V36.5H940.206L940.193 17H943.365L943.378 24.657C943.82 24.189 944.348 23.8207 944.964 23.552C945.579 23.2747 946.242 23.136 946.953 23.136C947.897 23.136 948.76 23.37 949.54 23.838C950.32 24.2973 950.939 24.917 951.399 25.697C951.867 26.4683 952.101 27.3307 952.101 28.284ZM964.239 23.5H967.411V36.5H964.239L964.096 34.888C963.741 35.4687 963.268 35.941 962.679 36.305C962.098 36.6603 961.409 36.838 960.612 36.838C959.65 36.838 958.749 36.656 957.908 36.292C957.067 35.928 956.326 35.4253 955.685 34.784C955.052 34.1427 954.554 33.4017 954.19 32.561C953.835 31.7203 953.657 30.819 953.657 29.857C953.657 28.9297 953.826 28.0587 954.164 27.244C954.511 26.4293 954.992 25.7143 955.607 25.099C956.222 24.4837 956.933 24.0027 957.739 23.656C958.545 23.3093 959.412 23.136 960.339 23.136C961.197 23.136 961.964 23.3267 962.64 23.708C963.325 24.0893 963.905 24.5747 964.382 25.164L964.239 23.5ZM960.534 33.783C961.21 33.783 961.808 33.614 962.328 33.276C962.848 32.938 963.255 32.483 963.55 31.911C963.845 31.3303 963.992 30.6933 963.992 30C963.992 29.298 963.845 28.661 963.55 28.089C963.255 27.5083 962.844 27.049 962.315 26.711C961.795 26.373 961.201 26.204 960.534 26.204C959.867 26.204 959.256 26.3773 958.701 26.724C958.155 27.062 957.717 27.517 957.388 28.089C957.067 28.661 956.907 29.298 956.907 30C956.907 30.702 957.072 31.339 957.401 31.911C957.73 32.483 958.168 32.938 958.714 33.276C959.269 33.614 959.875 33.783 960.534 33.783ZM970.014 36.5L970.001 23.5H973.173L973.186 24.657C973.628 24.189 974.157 23.8207 974.772 23.552C975.388 23.2747 976.051 23.136 976.761 23.136C977.238 23.136 977.715 23.2053 978.191 23.344L976.943 26.542C976.614 26.412 976.285 26.347 975.955 26.347C975.444 26.347 974.976 26.4727 974.551 26.724C974.135 26.9667 973.802 27.3003 973.55 27.725C973.308 28.141 973.186 28.6047 973.186 29.116V36.5H970.014ZM979.65 36.5V17H982.822V36.5H979.65ZM991.464 36.838C990.268 36.838 989.176 36.5303 988.188 35.915C987.208 35.2997 986.424 34.472 985.835 33.432C985.254 32.392 984.964 31.2437 984.964 29.987C984.964 29.0423 985.133 28.1583 985.471 27.335C985.809 26.503 986.272 25.775 986.862 25.151C987.46 24.5183 988.153 24.0243 988.942 23.669C989.73 23.3137 990.571 23.136 991.464 23.136C992.478 23.136 993.405 23.3527 994.246 23.786C995.095 24.2107 995.814 24.7957 996.404 25.541C996.993 26.2863 997.422 27.1357 997.691 28.089C997.959 29.0423 998.02 30.039 997.873 31.079H988.37C988.491 31.5643 988.69 32.002 988.968 32.392C989.245 32.7733 989.596 33.081 990.021 33.315C990.445 33.5403 990.926 33.6573 991.464 33.666C992.018 33.6747 992.521 33.5447 992.972 33.276C993.431 32.9987 993.812 32.626 994.116 32.158L997.353 32.912C996.824 34.0647 996.035 35.0093 994.987 35.746C993.938 36.474 992.764 36.838 991.464 36.838ZM988.266 28.7H994.662C994.566 28.18 994.363 27.712 994.051 27.296C993.747 26.8713 993.37 26.5333 992.92 26.282C992.469 26.0307 991.984 25.905 991.464 25.905C990.944 25.905 990.463 26.0307 990.021 26.282C989.579 26.5247 989.202 26.8583 988.89 27.283C988.586 27.699 988.378 28.1713 988.266 28.7ZM1003.92 36.734C1003.25 36.6907 1002.59 36.5563 1001.96 36.331C1001.34 36.097 1000.78 35.7807 1000.3 35.382C999.812 34.9833 999.439 34.5067 999.179 33.952L1001.86 32.808C1001.96 32.9813 1002.13 33.1677 1002.36 33.367C1002.6 33.5577 1002.88 33.718 1003.2 33.848C1003.53 33.978 1003.89 34.043 1004.28 34.043C1004.6 34.043 1004.92 33.9997 1005.21 33.913C1005.51 33.8177 1005.76 33.6747 1005.94 33.484C1006.13 33.2933 1006.23 33.0463 1006.23 32.743C1006.23 32.4223 1006.11 32.1753 1005.89 32.002C1005.67 31.82 1005.39 31.6857 1005.06 31.599C1004.73 31.5037 1004.41 31.417 1004.09 31.339C1003.27 31.1743 1002.5 30.9187 1001.79 30.572C1001.09 30.2253 1000.52 29.779 1000.09 29.233C999.665 28.6783 999.452 28.011 999.452 27.231C999.452 26.373 999.678 25.632 1000.13 25.008C1000.59 24.384 1001.18 23.903 1001.91 23.565C1002.65 23.227 1003.44 23.058 1004.29 23.058C1005.32 23.058 1006.26 23.2747 1007.12 23.708C1007.99 24.1327 1008.67 24.735 1009.18 25.515L1006.67 26.997C1006.55 26.789 1006.38 26.5983 1006.16 26.425C1005.94 26.243 1005.7 26.0957 1005.42 25.983C1005.14 25.8617 1004.85 25.7923 1004.55 25.775C1004.16 25.7577 1003.8 25.7923 1003.48 25.879C1003.16 25.9657 1002.9 26.113 1002.7 26.321C1002.51 26.529 1002.42 26.8063 1002.42 27.153C1002.42 27.4823 1002.55 27.7293 1002.81 27.894C1003.07 28.05 1003.38 28.1713 1003.74 28.258C1004.11 28.3447 1004.47 28.44 1004.81 28.544C1005.57 28.7953 1006.29 29.103 1006.95 29.467C1007.63 29.831 1008.17 30.2773 1008.58 30.806C1008.99 31.3347 1009.18 31.9673 1009.16 32.704C1009.16 33.5447 1008.91 34.2813 1008.41 34.914C1007.91 35.538 1007.26 36.0147 1006.46 36.344C1005.67 36.6733 1004.83 36.8033 1003.92 36.734ZM1011.39 27.114H1019.71V30.286H1011.39V27.114ZM1034.45 36.5H1030.8L1027.83 31.391L1026.01 33.562V36.5H1022.84V17H1026.01V28.635L1030.31 23.5H1034.46L1030 28.817L1034.45 36.5ZM1041.38 36.838C1040.19 36.838 1039.09 36.5303 1038.11 35.915C1037.13 35.2997 1036.34 34.472 1035.75 33.432C1035.17 32.392 1034.88 31.2437 1034.88 29.987C1034.88 29.0423 1035.05 28.1583 1035.39 27.335C1035.73 26.503 1036.19 25.775 1036.78 25.151C1037.38 24.5183 1038.07 24.0243 1038.86 23.669C1039.65 23.3137 1040.49 23.136 1041.38 23.136C1042.4 23.136 1043.32 23.3527 1044.16 23.786C1045.01 24.2107 1045.73 24.7957 1046.32 25.541C1046.91 26.2863 1047.34 27.1357 1047.61 28.089C1047.88 29.0423 1047.94 30.039 1047.79 31.079H1038.29C1038.41 31.5643 1038.61 32.002 1038.89 32.392C1039.16 32.7733 1039.51 33.081 1039.94 33.315C1040.36 33.5403 1040.84 33.6573 1041.38 33.666C1041.94 33.6747 1042.44 33.5447 1042.89 33.276C1043.35 32.9987 1043.73 32.626 1044.03 32.158L1047.27 32.912C1046.74 34.0647 1045.95 35.0093 1044.9 35.746C1043.86 36.474 1042.68 36.838 1041.38 36.838ZM1038.18 28.7H1044.58C1044.48 28.18 1044.28 27.712 1043.97 27.296C1043.67 26.8713 1043.29 26.5333 1042.84 26.282C1042.39 26.0307 1041.9 25.905 1041.38 25.905C1040.86 25.905 1040.38 26.0307 1039.94 26.282C1039.5 26.5247 1039.12 26.8583 1038.81 27.283C1038.5 27.699 1038.3 28.1713 1038.18 28.7ZM1049.7 36.5V17H1052.87V36.5H1049.7ZM1056 36.5V17H1059.17V36.5H1056ZM1070.33 23.5H1073.69L1066.58 43H1063.21L1065.57 36.5L1060.89 23.5H1064.36L1067.15 32.158L1070.33 23.5Z" fill="#041E31" fill-opacity="0.67"/>
<path d="M1200.87 35.5L1203.22 18.7H1213.15L1212.74 21.628H1205.74L1205.26 25.036H1211.11L1210.7 27.964H1204.85L1203.8 35.5H1200.87ZM1212.9 35.5L1215.25 18.7H1218.18L1215.83 35.5H1212.9ZM1219.08 35.5L1221.43 18.7H1227.88C1228.79 18.7 1229.58 18.928 1230.25 19.384C1230.92 19.84 1231.42 20.452 1231.74 21.22C1232.07 21.98 1232.17 22.824 1232.04 23.752C1231.94 24.512 1231.7 25.212 1231.33 25.852C1230.96 26.484 1230.5 27.032 1229.94 27.496C1229.39 27.96 1228.77 28.312 1228.09 28.552L1231.15 35.5H1227.78L1224.83 28.816H1222.94L1222.01 35.5H1219.08ZM1223.35 25.888H1226.53C1226.95 25.888 1227.34 25.784 1227.71 25.576C1228.08 25.368 1228.4 25.088 1228.66 24.736C1228.92 24.384 1229.08 23.992 1229.14 23.56C1229.2 23.12 1229.15 22.724 1228.99 22.372C1228.84 22.02 1228.6 21.74 1228.28 21.532C1227.97 21.324 1227.61 21.22 1227.19 21.22H1224.01L1223.35 25.888ZM1233.45 35.5L1235.8 18.7H1246.34L1245.93 21.628H1238.32L1237.84 25.036H1243.88L1243.47 27.964H1237.43L1236.78 32.572H1244.39L1243.98 35.5H1233.45ZM1246.69 35.5L1249.04 18.7H1258.97L1258.56 21.628H1251.56L1251.08 25.036H1256.93L1256.52 27.964H1250.67L1249.62 35.5H1246.69ZM1258.36 35.5L1260.71 18.7H1263.64L1261.7 32.572H1268.69L1268.29 35.5H1258.36ZM1282 18.7H1285.46L1278.39 27.928L1277.33 35.5H1274.41L1275.46 27.928L1270.99 18.7H1274.44L1277.37 24.736L1282 18.7Z" fill="#041E31" fill-opacity="0.67"/>
<path d="M1187.61 20.5L1187.61 12.5L1161.61 12.5L1161.61 20.5L1187.61 20.5Z" fill="#041E31" fill-opacity="0.67"/>
<path opacity="0.747" d="M1174.61 31.5L1174.61 22.5L1161.61 22.5L1161.61 31.5L1174.61 31.5Z" fill="#041E31" fill-opacity="0.67"/>
<path opacity="0.595" d="M1170.61 41.5L1170.61 33.5L1161.61 33.5L1161.61 41.5L1170.61 41.5Z" fill="#041E31" fill-opacity="0.67"/>
</g>
<defs>
<clipPath id="clip0_447_672">
<rect width="1286.61" height="54" fill="white"/>
</clipPath>
</defs>
</svg>
