<svg width="360" height="836" viewBox="0 0 360 836" fill="none" xmlns="http://www.w3.org/2000/svg">
<g clip-path="url(#clip0_590_612)">
<rect width="360" height="836" fill="url(#paint0_linear_590_612)"/>
<path d="M55.4599 58.288C54.1639 58.288 52.9559 58.056 51.8359 57.592C50.7319 57.128 49.7559 56.48 48.9079 55.648C48.0759 54.816 47.4199 53.84 46.9399 52.72C46.4759 51.6 46.2439 50.376 46.2439 49.048C46.2439 47.72 46.4759 46.496 46.9399 45.376C47.4199 44.24 48.0759 43.264 48.9079 42.448C49.7399 41.616 50.7159 40.976 51.8359 40.528C52.9559 40.064 54.1639 39.832 55.4599 39.832C56.7719 39.832 57.9799 40.064 59.0839 40.528C60.2039 40.976 61.1799 41.616 62.0119 42.448C62.8599 43.28 63.5159 44.256 63.9799 45.376C64.4439 46.496 64.6759 47.72 64.6759 49.048C64.6759 50.376 64.4359 51.6 63.9559 52.72C63.4919 53.84 62.8439 54.816 62.0119 55.648C61.1799 56.48 60.2039 57.128 59.0839 57.592C57.9639 58.056 56.7559 58.288 55.4599 58.288ZM55.4599 55.696C56.3879 55.696 57.2359 55.528 58.0039 55.192C58.7879 54.856 59.4679 54.392 60.0439 53.8C60.6199 53.192 61.0679 52.488 61.3879 51.688C61.7079 50.872 61.8679 49.992 61.8679 49.048C61.8679 48.104 61.7079 47.232 61.3879 46.432C61.0679 45.632 60.6199 44.928 60.0439 44.32C59.4679 43.712 58.7879 43.24 58.0039 42.904C57.2359 42.568 56.3879 42.4 55.4599 42.4C54.5319 42.4 53.6759 42.568 52.8919 42.904C52.1239 43.24 51.4519 43.712 50.8759 44.32C50.2999 44.928 49.8519 45.632 49.5319 46.432C49.2279 47.232 49.0759 48.104 49.0759 49.048C49.0759 49.992 49.2279 50.872 49.5319 51.688C49.8519 52.488 50.2999 53.192 50.8759 53.8C51.4519 54.392 52.1319 54.856 52.9159 55.192C53.6999 55.528 54.5479 55.696 55.4599 55.696ZM71.4902 58.288C70.5142 58.288 69.6582 58.072 68.9222 57.64C68.1862 57.192 67.6102 56.576 67.1942 55.792C66.7942 54.992 66.5942 54.072 66.5942 53.032V45.016H69.3062V52.792C69.3062 53.384 69.4262 53.904 69.6662 54.352C69.9062 54.8 70.2422 55.152 70.6742 55.408C71.1062 55.648 71.6022 55.768 72.1622 55.768C72.7382 55.768 73.2422 55.64 73.6742 55.384C74.1062 55.128 74.4422 54.768 74.6822 54.304C74.9382 53.84 75.0662 53.296 75.0662 52.672V45.016H77.7542V58H75.1862V55.456L75.4742 55.792C75.1702 56.592 74.6662 57.208 73.9622 57.64C73.2582 58.072 72.4342 58.288 71.4902 58.288ZM80.2007 58V45.016H82.7927V47.632L82.5527 47.248C82.8407 46.4 83.3047 45.792 83.9447 45.424C84.5847 45.04 85.3527 44.848 86.2487 44.848H87.0407V47.32H85.9127C85.0167 47.32 84.2887 47.6 83.7287 48.16C83.1847 48.704 82.9127 49.488 82.9127 50.512V58H80.2007ZM91.9153 58V40.12H98.4193C99.6193 40.12 100.675 40.344 101.587 40.792C102.515 41.224 103.235 41.864 103.747 42.712C104.259 43.544 104.515 44.544 104.515 45.712C104.515 46.864 104.251 47.856 103.723 48.688C103.211 49.52 102.499 50.16 101.587 50.608C100.675 51.056 99.6193 51.28 98.4193 51.28H94.7473V58H91.9153ZM94.7473 48.76H98.4913C99.1313 48.76 99.6913 48.632 100.171 48.376C100.651 48.12 101.027 47.768 101.299 47.32C101.571 46.856 101.707 46.312 101.707 45.688C101.707 45.064 101.571 44.528 101.299 44.08C101.027 43.616 100.651 43.264 100.171 43.024C99.6913 42.768 99.1313 42.64 98.4913 42.64H94.7473V48.76ZM112.074 58.288C110.778 58.288 109.626 57.992 108.618 57.4C107.626 56.792 106.85 55.976 106.29 54.952C105.73 53.912 105.45 52.752 105.45 51.472C105.45 50.16 105.73 49 106.29 47.992C106.866 46.984 107.634 46.192 108.594 45.616C109.554 45.024 110.642 44.728 111.858 44.728C112.834 44.728 113.706 44.896 114.474 45.232C115.242 45.568 115.89 46.032 116.418 46.624C116.946 47.2 117.346 47.864 117.618 48.616C117.906 49.368 118.05 50.168 118.05 51.016C118.05 51.224 118.042 51.44 118.026 51.664C118.01 51.888 117.978 52.096 117.93 52.288H107.586V50.128H116.394L115.098 51.112C115.258 50.328 115.202 49.632 114.93 49.024C114.674 48.4 114.274 47.912 113.73 47.56C113.202 47.192 112.578 47.008 111.858 47.008C111.138 47.008 110.498 47.192 109.938 47.56C109.378 47.912 108.946 48.424 108.642 49.096C108.338 49.752 108.218 50.552 108.282 51.496C108.202 52.376 108.322 53.144 108.642 53.8C108.978 54.456 109.442 54.968 110.034 55.336C110.642 55.704 111.33 55.888 112.098 55.888C112.882 55.888 113.546 55.712 114.09 55.36C114.65 55.008 115.09 54.552 115.41 53.992L117.618 55.072C117.362 55.68 116.962 56.232 116.418 56.728C115.89 57.208 115.25 57.592 114.498 57.88C113.762 58.152 112.954 58.288 112.074 58.288ZM119.977 58V45.016H122.569V47.632L122.329 47.248C122.617 46.4 123.081 45.792 123.721 45.424C124.361 45.04 125.129 44.848 126.025 44.848H126.817V47.32H125.689C124.793 47.32 124.065 47.6 123.505 48.16C122.961 48.704 122.689 49.488 122.689 50.512V58H119.977ZM129.416 58V47.464H127.016V45.016H129.416V44.344C129.416 43.368 129.616 42.552 130.016 41.896C130.416 41.224 130.968 40.712 131.672 40.36C132.392 40.008 133.216 39.832 134.144 39.832C134.32 39.832 134.52 39.848 134.744 39.88C134.968 39.896 135.152 39.92 135.296 39.952V42.304C135.168 42.272 135.024 42.256 134.864 42.256C134.704 42.24 134.576 42.232 134.48 42.232C133.76 42.232 133.184 42.4 132.752 42.736C132.32 43.056 132.104 43.592 132.104 44.344V45.016H135.08V47.464H132.104V58H129.416ZM142.66 58.288C141.412 58.288 140.268 57.992 139.228 57.4C138.204 56.808 137.388 56 136.78 54.976C136.172 53.952 135.868 52.792 135.868 51.496C135.868 50.184 136.172 49.024 136.78 48.016C137.388 46.992 138.204 46.192 139.228 45.616C140.252 45.024 141.396 44.728 142.66 44.728C143.94 44.728 145.084 45.024 146.092 45.616C147.116 46.192 147.924 46.992 148.516 48.016C149.124 49.024 149.428 50.184 149.428 51.496C149.428 52.808 149.124 53.976 148.516 55C147.908 56.024 147.092 56.832 146.068 57.424C145.044 58 143.908 58.288 142.66 58.288ZM142.66 55.768C143.428 55.768 144.108 55.584 144.7 55.216C145.292 54.848 145.756 54.344 146.092 53.704C146.444 53.048 146.62 52.312 146.62 51.496C146.62 50.68 146.444 49.952 146.092 49.312C145.756 48.672 145.292 48.168 144.7 47.8C144.108 47.432 143.428 47.248 142.66 47.248C141.908 47.248 141.228 47.432 140.62 47.8C140.028 48.168 139.556 48.672 139.204 49.312C138.868 49.952 138.7 50.68 138.7 51.496C138.7 52.312 138.868 53.048 139.204 53.704C139.556 54.344 140.028 54.848 140.62 55.216C141.228 55.584 141.908 55.768 142.66 55.768ZM151.356 58V45.016H153.948V47.632L153.708 47.248C153.996 46.4 154.46 45.792 155.1 45.424C155.74 45.04 156.508 44.848 157.404 44.848H158.196V47.32H157.068C156.172 47.32 155.444 47.6 154.884 48.16C154.34 48.704 154.068 49.488 154.068 50.512V58H151.356ZM159.331 58V45.016H161.923V47.824L161.587 47.392C161.859 46.512 162.355 45.848 163.075 45.4C163.795 44.952 164.619 44.728 165.547 44.728C166.587 44.728 167.507 45.008 168.307 45.568C169.123 46.112 169.667 46.84 169.939 47.752L169.171 47.824C169.555 46.784 170.139 46.008 170.923 45.496C171.723 44.984 172.635 44.728 173.659 44.728C174.555 44.728 175.363 44.936 176.083 45.352C176.819 45.768 177.403 46.344 177.835 47.08C178.267 47.816 178.483 48.656 178.483 49.6V58H175.771V50.344C175.771 49.688 175.651 49.136 175.411 48.688C175.187 48.224 174.867 47.872 174.451 47.632C174.051 47.376 173.579 47.248 173.035 47.248C172.491 47.248 172.011 47.376 171.595 47.632C171.179 47.872 170.851 48.224 170.611 48.688C170.371 49.152 170.251 49.704 170.251 50.344V58H167.563V50.344C167.563 49.688 167.443 49.136 167.203 48.688C166.979 48.224 166.659 47.872 166.243 47.632C165.843 47.376 165.363 47.248 164.803 47.248C164.259 47.248 163.779 47.376 163.363 47.632C162.947 47.872 162.619 48.224 162.379 48.688C162.155 49.152 162.043 49.704 162.043 50.344V58H159.331ZM184.554 58.288C183.674 58.288 182.898 58.136 182.226 57.832C181.57 57.512 181.058 57.08 180.69 56.536C180.322 55.976 180.138 55.32 180.138 54.568C180.138 53.864 180.29 53.232 180.594 52.672C180.914 52.112 181.402 51.64 182.058 51.256C182.714 50.872 183.538 50.6 184.53 50.44L189.042 49.696V51.832L185.058 52.528C184.338 52.656 183.81 52.888 183.474 53.224C183.138 53.544 182.97 53.96 182.97 54.472C182.97 54.968 183.154 55.376 183.522 55.696C183.906 56 184.394 56.152 184.986 56.152C185.722 56.152 186.362 55.992 186.906 55.672C187.466 55.352 187.898 54.928 188.202 54.4C188.506 53.856 188.658 53.256 188.658 52.6V49.264C188.658 48.624 188.418 48.104 187.938 47.704C187.474 47.288 186.85 47.08 186.066 47.08C185.346 47.08 184.714 47.272 184.17 47.656C183.642 48.024 183.25 48.504 182.994 49.096L180.738 47.968C180.978 47.328 181.37 46.768 181.914 46.288C182.458 45.792 183.09 45.408 183.81 45.136C184.546 44.864 185.322 44.728 186.138 44.728C187.162 44.728 188.066 44.92 188.85 45.304C189.65 45.688 190.266 46.224 190.698 46.912C191.146 47.584 191.37 48.368 191.37 49.264V58H188.778V55.648L189.33 55.72C189.026 56.248 188.634 56.704 188.154 57.088C187.69 57.472 187.154 57.768 186.546 57.976C185.954 58.184 185.29 58.288 184.554 58.288ZM193.821 58V45.016H196.413V47.56L196.101 47.224C196.421 46.408 196.933 45.792 197.637 45.376C198.341 44.944 199.157 44.728 200.085 44.728C201.045 44.728 201.893 44.936 202.629 45.352C203.365 45.768 203.941 46.344 204.357 47.08C204.773 47.816 204.981 48.664 204.981 49.624V58H202.293V50.344C202.293 49.688 202.173 49.136 201.933 48.688C201.693 48.224 201.349 47.872 200.901 47.632C200.469 47.376 199.973 47.248 199.413 47.248C198.853 47.248 198.349 47.376 197.901 47.632C197.469 47.872 197.133 48.224 196.893 48.688C196.653 49.152 196.533 49.704 196.533 50.344V58H193.821ZM213.332 58.288C212.036 58.288 210.884 57.992 209.876 57.4C208.884 56.792 208.092 55.976 207.5 54.952C206.924 53.928 206.636 52.768 206.636 51.472C206.636 50.192 206.924 49.04 207.5 48.016C208.076 46.992 208.868 46.192 209.876 45.616C210.884 45.024 212.036 44.728 213.332 44.728C214.212 44.728 215.036 44.888 215.804 45.208C216.572 45.512 217.236 45.936 217.796 46.48C218.372 47.024 218.796 47.656 219.068 48.376L216.692 49.48C216.42 48.808 215.98 48.272 215.372 47.872C214.78 47.456 214.1 47.248 213.332 47.248C212.596 47.248 211.932 47.432 211.34 47.8C210.764 48.152 210.308 48.656 209.972 49.312C209.636 49.952 209.468 50.68 209.468 51.496C209.468 52.312 209.636 53.048 209.972 53.704C210.308 54.344 210.764 54.848 211.34 55.216C211.932 55.584 212.596 55.768 213.332 55.768C214.116 55.768 214.796 55.568 215.372 55.168C215.964 54.752 216.404 54.2 216.692 53.512L219.068 54.64C218.812 55.328 218.396 55.952 217.82 56.512C217.26 57.056 216.596 57.488 215.828 57.808C215.06 58.128 214.228 58.288 213.332 58.288ZM227.094 58.288C225.798 58.288 224.646 57.992 223.638 57.4C222.646 56.792 221.87 55.976 221.31 54.952C220.75 53.912 220.47 52.752 220.47 51.472C220.47 50.16 220.75 49 221.31 47.992C221.886 46.984 222.654 46.192 223.614 45.616C224.574 45.024 225.662 44.728 226.878 44.728C227.854 44.728 228.726 44.896 229.494 45.232C230.262 45.568 230.91 46.032 231.438 46.624C231.966 47.2 232.366 47.864 232.638 48.616C232.926 49.368 233.07 50.168 233.07 51.016C233.07 51.224 233.062 51.44 233.046 51.664C233.03 51.888 232.998 52.096 232.95 52.288H222.606V50.128H231.414L230.118 51.112C230.278 50.328 230.222 49.632 229.95 49.024C229.694 48.4 229.294 47.912 228.75 47.56C228.222 47.192 227.598 47.008 226.878 47.008C226.158 47.008 225.518 47.192 224.958 47.56C224.398 47.912 223.966 48.424 223.662 49.096C223.358 49.752 223.238 50.552 223.302 51.496C223.222 52.376 223.342 53.144 223.662 53.8C223.998 54.456 224.462 54.968 225.054 55.336C225.662 55.704 226.35 55.888 227.118 55.888C227.902 55.888 228.566 55.712 229.11 55.36C229.67 55.008 230.11 54.552 230.43 53.992L232.638 55.072C232.382 55.68 231.982 56.232 231.438 56.728C230.91 57.208 230.27 57.592 229.518 57.88C228.782 58.152 227.974 58.288 227.094 58.288ZM235.405 52.696V50.296H245.005V52.696H235.405ZM248.135 58V40.12H253.991C255.847 40.12 257.455 40.496 258.815 41.248C260.191 41.984 261.255 43.024 262.007 44.368C262.759 45.712 263.135 47.272 263.135 49.048C263.135 50.808 262.759 52.368 262.007 53.728C261.255 55.072 260.191 56.12 258.815 56.872C257.455 57.624 255.847 58 253.991 58H248.135ZM250.967 55.48H254.039C255.303 55.48 256.399 55.216 257.327 54.688C258.271 54.16 258.999 53.416 259.511 52.456C260.023 51.496 260.279 50.36 260.279 49.048C260.279 47.736 260.015 46.608 259.487 45.664C258.975 44.704 258.255 43.96 257.327 43.432C256.399 42.904 255.303 42.64 254.039 42.64H250.967V55.48ZM264.94 58V45.016H267.532V47.632L267.292 47.248C267.58 46.4 268.044 45.792 268.684 45.424C269.324 45.04 270.092 44.848 270.988 44.848H271.78V47.32H270.652C269.756 47.32 269.028 47.6 268.468 48.16C267.924 48.704 267.652 49.488 267.652 50.512V58H264.94ZM272.915 58V45.016H275.627V58H272.915ZM272.915 43.24V40.12H275.627V43.24H272.915ZM281.846 58L276.758 45.016H279.71L283.622 55.6H282.542L286.454 45.016H289.43L284.318 58H281.846ZM296.415 58.288C295.119 58.288 293.967 57.992 292.959 57.4C291.967 56.792 291.191 55.976 290.631 54.952C290.071 53.912 289.791 52.752 289.791 51.472C289.791 50.16 290.071 49 290.631 47.992C291.207 46.984 291.975 46.192 292.935 45.616C293.895 45.024 294.983 44.728 296.199 44.728C297.175 44.728 298.047 44.896 298.815 45.232C299.583 45.568 300.231 46.032 300.759 46.624C301.287 47.2 301.687 47.864 301.959 48.616C302.247 49.368 302.391 50.168 302.391 51.016C302.391 51.224 302.383 51.44 302.367 51.664C302.351 51.888 302.319 52.096 302.271 52.288H291.927V50.128H300.735L299.439 51.112C299.599 50.328 299.543 49.632 299.271 49.024C299.015 48.4 298.615 47.912 298.071 47.56C297.543 47.192 296.919 47.008 296.199 47.008C295.479 47.008 294.839 47.192 294.279 47.56C293.719 47.912 293.287 48.424 292.983 49.096C292.679 49.752 292.559 50.552 292.623 51.496C292.543 52.376 292.663 53.144 292.983 53.8C293.319 54.456 293.783 54.968 294.375 55.336C294.983 55.704 295.671 55.888 296.439 55.888C297.223 55.888 297.887 55.712 298.431 55.36C298.991 55.008 299.431 54.552 299.751 53.992L301.959 55.072C301.703 55.68 301.303 56.232 300.759 56.728C300.231 57.208 299.591 57.592 298.839 57.88C298.103 58.152 297.295 58.288 296.415 58.288ZM304.318 58V45.016H306.91V47.56L306.598 47.224C306.918 46.408 307.43 45.792 308.134 45.376C308.838 44.944 309.654 44.728 310.582 44.728C311.542 44.728 312.39 44.936 313.126 45.352C313.862 45.768 314.438 46.344 314.854 47.08C315.27 47.816 315.478 48.664 315.478 49.624V58H312.79V50.344C312.79 49.688 312.67 49.136 312.43 48.688C312.19 48.224 311.846 47.872 311.398 47.632C310.966 47.376 310.47 47.248 309.91 47.248C309.35 47.248 308.846 47.376 308.398 47.632C307.966 47.872 307.63 48.224 307.39 48.688C307.15 49.152 307.03 49.704 307.03 50.344V58H304.318ZM137.645 90V72.12H144.149C145.349 72.12 146.405 72.344 147.317 72.792C148.245 73.224 148.965 73.864 149.477 74.712C149.989 75.544 150.245 76.544 150.245 77.712C150.245 78.864 149.981 79.856 149.453 80.688C148.941 81.52 148.229 82.16 147.317 82.608C146.405 83.056 145.349 83.28 144.149 83.28H140.477V90H137.645ZM140.477 80.76H144.221C144.861 80.76 145.421 80.632 145.901 80.376C146.381 80.12 146.757 79.768 147.029 79.32C147.301 78.856 147.437 78.312 147.437 77.688C147.437 77.064 147.301 76.528 147.029 76.08C146.757 75.616 146.381 75.264 145.901 75.024C145.421 74.768 144.861 74.64 144.221 74.64H140.477V80.76ZM152.176 90V77.016H154.768V79.632L154.528 79.248C154.816 78.4 155.28 77.792 155.92 77.424C156.56 77.04 157.328 76.848 158.224 76.848H159.016V79.32H157.888C156.992 79.32 156.264 79.6 155.704 80.16C155.16 80.704 154.888 81.488 154.888 82.512V90H152.176ZM166.416 90.288C165.168 90.288 164.024 89.992 162.984 89.4C161.96 88.808 161.144 88 160.536 86.976C159.928 85.952 159.624 84.792 159.624 83.496C159.624 82.184 159.928 81.024 160.536 80.016C161.144 78.992 161.96 78.192 162.984 77.616C164.008 77.024 165.152 76.728 166.416 76.728C167.696 76.728 168.84 77.024 169.848 77.616C170.872 78.192 171.68 78.992 172.272 80.016C172.88 81.024 173.184 82.184 173.184 83.496C173.184 84.808 172.88 85.976 172.272 87C171.664 88.024 170.848 88.832 169.824 89.424C168.8 90 167.664 90.288 166.416 90.288ZM166.416 87.768C167.184 87.768 167.864 87.584 168.456 87.216C169.048 86.848 169.512 86.344 169.848 85.704C170.2 85.048 170.376 84.312 170.376 83.496C170.376 82.68 170.2 81.952 169.848 81.312C169.512 80.672 169.048 80.168 168.456 79.8C167.864 79.432 167.184 79.248 166.416 79.248C165.664 79.248 164.984 79.432 164.376 79.8C163.784 80.168 163.312 80.672 162.96 81.312C162.624 81.952 162.456 82.68 162.456 83.496C162.456 84.312 162.624 85.048 162.96 85.704C163.312 86.344 163.784 86.848 164.376 87.216C164.984 87.584 165.664 87.768 166.416 87.768ZM181.279 90.288C179.983 90.288 178.831 89.992 177.823 89.4C176.831 88.792 176.039 87.976 175.447 86.952C174.871 85.928 174.583 84.768 174.583 83.472C174.583 82.192 174.871 81.04 175.447 80.016C176.023 78.992 176.815 78.192 177.823 77.616C178.831 77.024 179.983 76.728 181.279 76.728C182.159 76.728 182.983 76.888 183.751 77.208C184.519 77.512 185.183 77.936 185.743 78.48C186.319 79.024 186.743 79.656 187.015 80.376L184.639 81.48C184.367 80.808 183.927 80.272 183.319 79.872C182.727 79.456 182.047 79.248 181.279 79.248C180.543 79.248 179.879 79.432 179.287 79.8C178.711 80.152 178.255 80.656 177.919 81.312C177.583 81.952 177.415 82.68 177.415 83.496C177.415 84.312 177.583 85.048 177.919 85.704C178.255 86.344 178.711 86.848 179.287 87.216C179.879 87.584 180.543 87.768 181.279 87.768C182.063 87.768 182.743 87.568 183.319 87.168C183.911 86.752 184.351 86.2 184.639 85.512L187.015 86.64C186.759 87.328 186.343 87.952 185.767 88.512C185.207 89.056 184.543 89.488 183.775 89.808C183.007 90.128 182.175 90.288 181.279 90.288ZM195.042 90.288C193.746 90.288 192.594 89.992 191.586 89.4C190.594 88.792 189.818 87.976 189.258 86.952C188.698 85.912 188.418 84.752 188.418 83.472C188.418 82.16 188.698 81 189.258 79.992C189.834 78.984 190.602 78.192 191.562 77.616C192.522 77.024 193.61 76.728 194.826 76.728C195.802 76.728 196.674 76.896 197.442 77.232C198.21 77.568 198.858 78.032 199.386 78.624C199.914 79.2 200.314 79.864 200.586 80.616C200.874 81.368 201.018 82.168 201.018 83.016C201.018 83.224 201.01 83.44 200.994 83.664C200.978 83.888 200.946 84.096 200.898 84.288H190.554V82.128H199.362L198.066 83.112C198.226 82.328 198.17 81.632 197.898 81.024C197.642 80.4 197.242 79.912 196.698 79.56C196.17 79.192 195.546 79.008 194.826 79.008C194.106 79.008 193.466 79.192 192.906 79.56C192.346 79.912 191.914 80.424 191.61 81.096C191.306 81.752 191.186 82.552 191.25 83.496C191.17 84.376 191.29 85.144 191.61 85.8C191.946 86.456 192.41 86.968 193.002 87.336C193.61 87.704 194.298 87.888 195.066 87.888C195.85 87.888 196.514 87.712 197.058 87.36C197.618 87.008 198.058 86.552 198.378 85.992L200.586 87.072C200.33 87.68 199.93 88.232 199.386 88.728C198.858 89.208 198.218 89.592 197.466 89.88C196.73 90.152 195.922 90.288 195.042 90.288ZM207.745 90.288C206.417 90.288 205.249 89.96 204.241 89.304C203.249 88.648 202.553 87.768 202.153 86.664L204.241 85.68C204.593 86.416 205.073 87 205.681 87.432C206.305 87.864 206.993 88.08 207.745 88.08C208.385 88.08 208.905 87.936 209.305 87.648C209.705 87.36 209.905 86.968 209.905 86.472C209.905 86.152 209.817 85.896 209.641 85.704C209.465 85.496 209.241 85.328 208.969 85.2C208.713 85.072 208.449 84.976 208.177 84.912L206.137 84.336C205.017 84.016 204.177 83.536 203.617 82.896C203.073 82.24 202.801 81.48 202.801 80.616C202.801 79.832 203.001 79.152 203.401 78.576C203.801 77.984 204.353 77.528 205.057 77.208C205.761 76.888 206.553 76.728 207.433 76.728C208.617 76.728 209.673 77.024 210.601 77.616C211.529 78.192 212.185 79 212.569 80.04L210.481 81.024C210.225 80.4 209.817 79.904 209.257 79.536C208.713 79.168 208.097 78.984 207.409 78.984C206.817 78.984 206.345 79.128 205.993 79.416C205.641 79.688 205.465 80.048 205.465 80.496C205.465 80.8 205.545 81.056 205.705 81.264C205.865 81.456 206.073 81.616 206.329 81.744C206.585 81.856 206.849 81.952 207.121 82.032L209.233 82.656C210.305 82.96 211.129 83.44 211.705 84.096C212.281 84.736 212.569 85.504 212.569 86.4C212.569 87.168 212.361 87.848 211.945 88.44C211.545 89.016 210.985 89.472 210.265 89.808C209.545 90.128 208.705 90.288 207.745 90.288ZM219.306 90.288C217.978 90.288 216.81 89.96 215.802 89.304C214.81 88.648 214.114 87.768 213.714 86.664L215.802 85.68C216.154 86.416 216.634 87 217.242 87.432C217.866 87.864 218.554 88.08 219.306 88.08C219.946 88.08 220.466 87.936 220.866 87.648C221.266 87.36 221.466 86.968 221.466 86.472C221.466 86.152 221.378 85.896 221.202 85.704C221.026 85.496 220.802 85.328 220.53 85.2C220.274 85.072 220.01 84.976 219.738 84.912L217.698 84.336C216.578 84.016 215.738 83.536 215.178 82.896C214.634 82.24 214.362 81.48 214.362 80.616C214.362 79.832 214.562 79.152 214.962 78.576C215.362 77.984 215.914 77.528 216.618 77.208C217.322 76.888 218.114 76.728 218.994 76.728C220.178 76.728 221.234 77.024 222.162 77.616C223.09 78.192 223.746 79 224.13 80.04L222.042 81.024C221.786 80.4 221.378 79.904 220.818 79.536C220.274 79.168 219.658 78.984 218.97 78.984C218.378 78.984 217.906 79.128 217.554 79.416C217.202 79.688 217.026 80.048 217.026 80.496C217.026 80.8 217.106 81.056 217.266 81.264C217.426 81.456 217.634 81.616 217.89 81.744C218.146 81.856 218.41 81.952 218.682 82.032L220.794 82.656C221.866 82.96 222.69 83.44 223.266 84.096C223.842 84.736 224.13 85.504 224.13 86.4C224.13 87.168 223.922 87.848 223.506 88.44C223.106 89.016 222.546 89.472 221.826 89.808C221.106 90.128 220.266 90.288 219.306 90.288Z" fill="#181A1B"/>
<g opacity="0.16">
<circle cx="138.934" cy="770.688" r="27.4345" stroke="#464ADB"/>
<circle cx="144.521" cy="770.132" r="27.4345" stroke="#464ADB"/>
<circle cx="150.108" cy="768.483" r="27.4345" stroke="#464ADB"/>
<circle cx="155.695" cy="765.807" r="27.4345" stroke="#464ADB"/>
<circle cx="161.282" cy="762.218" r="27.4345" stroke="#464ADB"/>
<circle cx="166.869" cy="757.849" r="27.4345" stroke="#464ADB"/>
<circle cx="172.456" cy="752.878" r="27.4345" stroke="#464ADB"/>
<circle cx="178.043" cy="747.501" r="27.4345" stroke="#464ADB"/>
<circle cx="183.63" cy="741.94" r="27.4345" stroke="#464ADB"/>
<circle cx="189.216" cy="736.409" r="27.4345" stroke="#464ADB"/>
<circle cx="194.803" cy="731.13" r="27.4345" stroke="#464ADB"/>
<circle cx="200.39" cy="726.313" r="27.4345" stroke="#464ADB"/>
<circle cx="205.977" cy="722.155" r="27.4345" stroke="#464ADB"/>
<circle cx="211.564" cy="718.817" r="27.4345" stroke="#464ADB"/>
<circle cx="217.151" cy="716.434" r="27.4345" stroke="#464ADB"/>
<circle cx="222.738" cy="715.099" r="27.4345" stroke="#464ADB"/>
<circle cx="228.325" cy="714.868" r="27.4345" stroke="#464ADB"/>
<circle cx="233.912" cy="715.749" r="27.4345" stroke="#464ADB"/>
<circle cx="239.498" cy="717.704" r="27.4345" stroke="#464ADB"/>
<circle cx="245.085" cy="720.661" r="27.4345" stroke="#464ADB"/>
<circle cx="250.672" cy="724.497" r="27.4345" stroke="#464ADB"/>
<circle cx="256.259" cy="729.057" r="27.4345" stroke="#464ADB"/>
<circle cx="261.846" cy="734.169" r="27.4345" stroke="#464ADB"/>
<circle cx="267.433" cy="739.622" r="27.4345" stroke="#464ADB"/>
<circle cx="273.02" cy="745.198" r="27.4345" stroke="#464ADB"/>
<circle cx="278.607" cy="750.679" r="27.4345" stroke="#464ADB"/>
<circle cx="284.194" cy="755.843" r="27.4345" stroke="#464ADB"/>
<circle cx="289.781" cy="760.483" r="27.4345" stroke="#464ADB"/>
<circle cx="295.367" cy="764.419" r="27.4345" stroke="#464ADB"/>
<circle cx="300.954" cy="767.491" r="27.4345" stroke="#464ADB"/>
<circle cx="306.541" cy="769.575" r="27.4345" stroke="#464ADB"/>
<circle cx="312.128" cy="770.593" r="27.4345" stroke="#464ADB"/>
<circle cx="317.715" cy="770.499" r="27.4345" stroke="#464ADB"/>
<circle cx="323.302" cy="769.298" r="27.4345" stroke="#464ADB"/>
<circle cx="328.889" cy="767.04" r="27.4345" stroke="#464ADB"/>
<circle cx="334.475" cy="763.815" r="27.4345" stroke="#464ADB"/>
<circle cx="340.062" cy="759.749" r="27.4345" stroke="#464ADB"/>
<circle cx="345.649" cy="755.003" r="27.4345" stroke="#464ADB"/>
<circle cx="351.236" cy="749.774" r="27.4345" stroke="#464ADB"/>
<circle cx="356.823" cy="744.261" r="27.4345" stroke="#464ADB"/>
<circle cx="362.41" cy="738.69" r="27.4345" stroke="#464ADB"/>
<circle cx="367.997" cy="733.28" r="27.4345" stroke="#464ADB"/>
<circle cx="373.584" cy="728.247" r="27.4345" stroke="#464ADB"/>
<circle cx="379.171" cy="723.794" r="27.4345" stroke="#464ADB"/>
<circle cx="384.758" cy="720.097" r="27.4345" stroke="#464ADB"/>
</g>
<path d="M181.567 156C191.775 177.044 206.067 229.678 181.567 271.865C157.067 314.052 171.359 379.56 181.567 407.041C193.213 433.779 209.518 499.288 181.567 547.416C146.629 607.577 177.11 684.325 181.567 692" stroke="#384BF8" stroke-opacity="0.4"/>
<g clip-path="url(#clip1_590_612)">
<path d="M174.518 127.269C175.838 121.427 184.162 121.427 185.482 127.269C186.337 131.055 190.682 132.855 193.965 130.783C199.029 127.585 204.915 133.471 201.717 138.535C199.645 141.818 201.445 146.163 205.231 147.018C211.073 148.338 211.073 156.662 205.231 157.982C201.445 158.837 199.645 163.182 201.717 166.465C204.915 171.529 199.029 177.415 193.965 174.217C190.682 172.145 186.337 173.945 185.482 177.731C184.162 183.573 175.838 183.573 174.518 177.731C173.663 173.945 169.318 172.145 166.035 174.217C160.971 177.415 155.085 171.529 158.283 166.465C160.355 163.182 158.555 158.837 154.769 157.982C148.927 156.662 148.927 148.338 154.769 147.018C158.555 146.163 160.355 141.818 158.283 138.535C155.085 133.471 160.971 127.585 166.035 130.783C169.318 132.855 173.663 131.055 174.518 127.269Z" fill="#384BF8"/>
<path d="M179.556 162V143.644H183.612V162H179.556ZM176.02 147.102V143.644H183.352V147.102H176.02Z" fill="white"/>
</g>
<path d="M101.103 215V212.69H105.151C106.207 212.69 107.131 212.463 107.923 212.008C108.73 211.553 109.353 210.923 109.793 210.116C110.248 209.295 110.475 208.349 110.475 207.278C110.475 206.222 110.248 205.291 109.793 204.484C109.339 203.677 108.708 203.047 107.901 202.592C107.109 202.137 106.193 201.91 105.151 201.91H101.103V199.6H105.217C106.332 199.6 107.366 199.798 108.319 200.194C109.273 200.575 110.101 201.118 110.805 201.822C111.524 202.511 112.081 203.325 112.477 204.264C112.873 205.188 113.071 206.2 113.071 207.3C113.071 208.385 112.873 209.397 112.477 210.336C112.081 211.275 111.531 212.096 110.827 212.8C110.123 213.489 109.295 214.032 108.341 214.428C107.388 214.809 106.361 215 105.261 215H101.103ZM99.3654 215V199.6H101.895V215H99.3654ZM120.227 215.22C119.171 215.22 118.217 214.985 117.367 214.516C116.531 214.032 115.863 213.372 115.365 212.536C114.881 211.7 114.639 210.761 114.639 209.72C114.639 208.679 114.881 207.747 115.365 206.926C115.849 206.09 116.501 205.43 117.323 204.946C118.159 204.462 119.083 204.22 120.095 204.22C121.077 204.22 121.943 204.447 122.691 204.902C123.453 205.357 124.047 205.98 124.473 206.772C124.913 207.564 125.133 208.466 125.133 209.478C125.133 209.654 125.118 209.837 125.089 210.028C125.074 210.204 125.045 210.402 125.001 210.622H116.333V208.642H123.747L122.845 209.434C122.815 208.789 122.691 208.246 122.471 207.806C122.251 207.366 121.935 207.029 121.525 206.794C121.129 206.559 120.637 206.442 120.051 206.442C119.435 206.442 118.899 206.574 118.445 206.838C117.99 207.102 117.638 207.476 117.389 207.96C117.139 208.429 117.015 208.994 117.015 209.654C117.015 210.314 117.147 210.893 117.411 211.392C117.675 211.891 118.049 212.279 118.533 212.558C119.017 212.822 119.574 212.954 120.205 212.954C120.747 212.954 121.246 212.859 121.701 212.668C122.17 212.477 122.566 212.199 122.889 211.832L124.429 213.394C123.915 213.995 123.292 214.45 122.559 214.758C121.825 215.066 121.048 215.22 120.227 215.22ZM128.245 215V202.614C128.245 201.91 128.399 201.287 128.707 200.744C129.03 200.187 129.47 199.747 130.027 199.424C130.585 199.101 131.237 198.94 131.985 198.94C132.543 198.94 133.027 199.035 133.437 199.226C133.863 199.402 134.259 199.659 134.625 199.996L133.041 201.58C132.895 201.463 132.733 201.375 132.557 201.316C132.396 201.243 132.205 201.206 131.985 201.206C131.56 201.206 131.23 201.331 130.995 201.58C130.775 201.829 130.665 202.167 130.665 202.592V215H128.245ZM125.715 206.64V204.44H136.011V206.64H125.715ZM134.625 215V204.44H137.045V215H134.625ZM135.835 203.516C135.425 203.516 135.08 203.377 134.801 203.098C134.537 202.819 134.405 202.475 134.405 202.064C134.405 201.653 134.537 201.309 134.801 201.03C135.08 200.751 135.425 200.612 135.835 200.612C136.261 200.612 136.605 200.751 136.869 201.03C137.133 201.309 137.265 201.653 137.265 202.064C137.265 202.475 137.133 202.819 136.869 203.098C136.605 203.377 136.261 203.516 135.835 203.516ZM146.986 215V208.906C146.986 208.202 146.759 207.623 146.304 207.168C145.864 206.713 145.292 206.486 144.588 206.486C144.119 206.486 143.701 206.589 143.334 206.794C142.968 206.999 142.682 207.285 142.476 207.652C142.271 208.019 142.168 208.437 142.168 208.906L141.222 208.378C141.222 207.571 141.398 206.86 141.75 206.244C142.102 205.613 142.586 205.122 143.202 204.77C143.833 204.403 144.537 204.22 145.314 204.22C146.106 204.22 146.81 204.425 147.426 204.836C148.042 205.232 148.526 205.753 148.878 206.398C149.23 207.029 149.406 207.689 149.406 208.378V215H146.986ZM139.748 215V204.44H142.168V215H139.748ZM156.771 215.22C155.715 215.22 154.762 214.985 153.911 214.516C153.075 214.032 152.408 213.372 151.909 212.536C151.425 211.7 151.183 210.761 151.183 209.72C151.183 208.679 151.425 207.747 151.909 206.926C152.393 206.09 153.046 205.43 153.867 204.946C154.703 204.462 155.627 204.22 156.639 204.22C157.622 204.22 158.487 204.447 159.235 204.902C159.998 205.357 160.592 205.98 161.017 206.772C161.457 207.564 161.677 208.466 161.677 209.478C161.677 209.654 161.663 209.837 161.633 210.028C161.619 210.204 161.589 210.402 161.545 210.622H152.877V208.642H160.291L159.389 209.434C159.36 208.789 159.235 208.246 159.015 207.806C158.795 207.366 158.48 207.029 158.069 206.794C157.673 206.559 157.182 206.442 156.595 206.442C155.979 206.442 155.444 206.574 154.989 206.838C154.535 207.102 154.183 207.476 153.933 207.96C153.684 208.429 153.559 208.994 153.559 209.654C153.559 210.314 153.691 210.893 153.955 211.392C154.219 211.891 154.593 212.279 155.077 212.558C155.561 212.822 156.119 212.954 156.749 212.954C157.292 212.954 157.791 212.859 158.245 212.668C158.715 212.477 159.111 212.199 159.433 211.832L160.973 213.394C160.46 213.995 159.837 214.45 159.103 214.758C158.37 215.066 157.593 215.22 156.771 215.22ZM171.432 215.11L166.922 204.44H169.584L172.664 212.272H171.894L175.15 204.44H177.834L172.928 215.11H171.432ZM168.286 219.4L171.564 212.646L172.928 215.11L170.97 219.4H168.286ZM183.711 215.22C182.685 215.22 181.753 214.978 180.917 214.494C180.081 213.995 179.414 213.328 178.915 212.492C178.431 211.656 178.189 210.725 178.189 209.698C178.189 208.671 178.431 207.747 178.915 206.926C179.414 206.105 180.081 205.452 180.917 204.968C181.753 204.469 182.685 204.22 183.711 204.22C184.753 204.22 185.691 204.462 186.527 204.946C187.363 205.43 188.023 206.09 188.507 206.926C189.006 207.747 189.255 208.671 189.255 209.698C189.255 210.725 189.006 211.656 188.507 212.492C188.023 213.328 187.363 213.995 186.527 214.494C185.691 214.978 184.753 215.22 183.711 215.22ZM183.711 212.888C184.313 212.888 184.841 212.756 185.295 212.492C185.765 212.213 186.124 211.832 186.373 211.348C186.637 210.864 186.769 210.314 186.769 209.698C186.769 209.082 186.637 208.539 186.373 208.07C186.109 207.601 185.75 207.234 185.295 206.97C184.841 206.691 184.313 206.552 183.711 206.552C183.125 206.552 182.597 206.691 182.127 206.97C181.673 207.234 181.313 207.601 181.049 208.07C180.8 208.539 180.675 209.082 180.675 209.698C180.675 210.314 180.8 210.864 181.049 211.348C181.313 211.832 181.673 212.213 182.127 212.492C182.597 212.756 183.125 212.888 183.711 212.888ZM195.602 215.22C194.707 215.22 193.908 215.022 193.204 214.626C192.514 214.23 191.972 213.687 191.576 212.998C191.194 212.294 191.004 211.487 191.004 210.578V204.44H193.424V210.468C193.424 210.981 193.504 211.421 193.666 211.788C193.842 212.14 194.091 212.411 194.414 212.602C194.751 212.793 195.147 212.888 195.602 212.888C196.306 212.888 196.841 212.683 197.208 212.272C197.589 211.847 197.78 211.245 197.78 210.468V204.44H200.2V210.578C200.2 211.502 200.002 212.316 199.606 213.02C199.224 213.709 198.689 214.252 198 214.648C197.31 215.029 196.511 215.22 195.602 215.22ZM202.633 215V204.44H205.053V215H202.633ZM205.053 209.126L204.217 208.708C204.217 207.373 204.51 206.295 205.097 205.474C205.698 204.638 206.6 204.22 207.803 204.22C208.331 204.22 208.808 204.315 209.233 204.506C209.658 204.697 210.054 205.005 210.421 205.43L208.837 207.058C208.646 206.853 208.434 206.706 208.199 206.618C207.964 206.53 207.693 206.486 207.385 206.486C206.71 206.486 206.153 206.699 205.713 207.124C205.273 207.549 205.053 208.217 205.053 209.126ZM223.665 215.22C222.609 215.22 221.612 215.015 220.673 214.604C219.734 214.193 218.913 213.629 218.209 212.91C217.505 212.177 216.948 211.333 216.537 210.38C216.141 209.412 215.943 208.378 215.943 207.278C215.943 206.178 216.141 205.151 216.537 204.198C216.948 203.245 217.505 202.409 218.209 201.69C218.928 200.957 219.764 200.392 220.717 199.996C221.685 199.585 222.726 199.38 223.841 199.38C225.058 199.38 226.188 199.615 227.229 200.084C228.27 200.553 229.143 201.221 229.847 202.086L228.131 203.802C227.676 203.157 227.068 202.665 226.305 202.328C225.542 201.976 224.721 201.8 223.841 201.8C222.785 201.8 221.854 202.035 221.047 202.504C220.255 202.959 219.639 203.597 219.199 204.418C218.759 205.239 218.539 206.193 218.539 207.278C218.539 208.363 218.759 209.324 219.199 210.16C219.654 210.981 220.262 211.627 221.025 212.096C221.788 212.565 222.653 212.8 223.621 212.8C224.648 212.8 225.528 212.617 226.261 212.25C227.009 211.869 227.581 211.311 227.977 210.578C228.373 209.83 228.571 208.913 228.571 207.828L230.155 208.972H223.577V206.662H231.189V207.014C231.189 208.847 230.859 210.373 230.199 211.59C229.554 212.807 228.666 213.717 227.537 214.318C226.408 214.919 225.117 215.22 223.665 215.22ZM238.217 215.22C237.19 215.22 236.259 214.978 235.423 214.494C234.587 213.995 233.92 213.328 233.421 212.492C232.937 211.656 232.695 210.725 232.695 209.698C232.695 208.671 232.937 207.747 233.421 206.926C233.92 206.105 234.587 205.452 235.423 204.968C236.259 204.469 237.19 204.22 238.217 204.22C239.258 204.22 240.197 204.462 241.033 204.946C241.869 205.43 242.529 206.09 243.013 206.926C243.512 207.747 243.761 208.671 243.761 209.698C243.761 210.725 243.512 211.656 243.013 212.492C242.529 213.328 241.869 213.995 241.033 214.494C240.197 214.978 239.258 215.22 238.217 215.22ZM238.217 212.888C238.818 212.888 239.346 212.756 239.801 212.492C240.27 212.213 240.63 211.832 240.879 211.348C241.143 210.864 241.275 210.314 241.275 209.698C241.275 209.082 241.143 208.539 240.879 208.07C240.615 207.601 240.256 207.234 239.801 206.97C239.346 206.691 238.818 206.552 238.217 206.552C237.63 206.552 237.102 206.691 236.633 206.97C236.178 207.234 235.819 207.601 235.555 208.07C235.306 208.539 235.181 209.082 235.181 209.698C235.181 210.314 235.306 210.864 235.555 211.348C235.819 211.832 236.178 212.213 236.633 212.492C237.102 212.756 237.63 212.888 238.217 212.888ZM250.196 215.22C249.242 215.22 248.377 214.978 247.6 214.494C246.837 214.01 246.228 213.357 245.774 212.536C245.334 211.7 245.114 210.769 245.114 209.742C245.114 208.701 245.334 207.769 245.774 206.948C246.228 206.112 246.837 205.452 247.6 204.968C248.377 204.469 249.242 204.22 250.196 204.22C251.002 204.22 251.714 204.396 252.33 204.748C252.96 205.085 253.459 205.555 253.826 206.156C254.192 206.757 254.376 207.439 254.376 208.202V211.238C254.376 212.001 254.192 212.683 253.826 213.284C253.474 213.885 252.982 214.362 252.352 214.714C251.721 215.051 251.002 215.22 250.196 215.22ZM250.592 212.932C251.486 212.932 252.205 212.631 252.748 212.03C253.305 211.429 253.584 210.659 253.584 209.72C253.584 209.089 253.459 208.532 253.21 208.048C252.96 207.564 252.608 207.19 252.154 206.926C251.714 206.647 251.193 206.508 250.592 206.508C250.005 206.508 249.484 206.647 249.03 206.926C248.59 207.19 248.238 207.564 247.974 208.048C247.724 208.532 247.6 209.089 247.6 209.72C247.6 210.351 247.724 210.908 247.974 211.392C248.238 211.876 248.59 212.257 249.03 212.536C249.484 212.8 250.005 212.932 250.592 212.932ZM253.43 215V212.162L253.848 209.588L253.43 207.036V204.44H255.85V215H253.43ZM258.535 215V199.16H260.955V215H258.535Z" fill="#0564F2"/>
<g clip-path="url(#clip2_590_612)">
<path d="M174.518 281.269C175.838 275.427 184.162 275.427 185.482 281.269C186.337 285.055 190.682 286.855 193.965 284.783C199.029 281.585 204.915 287.471 201.717 292.535C199.645 295.818 201.445 300.163 205.231 301.018C211.073 302.338 211.073 310.662 205.231 311.982C201.445 312.837 199.645 317.182 201.717 320.465C204.915 325.529 199.029 331.415 193.965 328.217C190.682 326.145 186.337 327.945 185.482 331.731C184.162 337.573 175.838 337.573 174.518 331.731C173.663 327.945 169.318 326.145 166.035 328.217C160.971 331.415 155.085 325.529 158.283 320.465C160.355 317.182 158.555 312.837 154.769 311.982C148.927 310.662 148.927 302.338 154.769 301.018C158.555 300.163 160.355 295.818 158.283 292.535C155.085 287.471 160.971 281.585 166.035 284.783C169.318 286.855 173.663 285.055 174.518 281.269Z" fill="#384BF8"/>
<path d="M174.124 313.712L181.17 306.432C181.603 305.999 181.95 305.6 182.21 305.236C182.47 304.872 182.661 304.534 182.782 304.222C182.903 303.893 182.964 303.563 182.964 303.234C182.964 302.523 182.73 301.969 182.262 301.57C181.811 301.154 181.213 300.946 180.468 300.946C179.74 300.946 179.081 301.145 178.492 301.544C177.92 301.925 177.365 302.558 176.828 303.442L174.098 301.076C174.826 299.845 175.753 298.918 176.88 298.294C178.007 297.67 179.298 297.358 180.754 297.358C182.019 297.358 183.111 297.592 184.03 298.06C184.966 298.528 185.685 299.195 186.188 300.062C186.708 300.929 186.968 301.943 186.968 303.104C186.968 303.832 186.873 304.508 186.682 305.132C186.491 305.739 186.179 306.345 185.746 306.952C185.33 307.541 184.767 308.191 184.056 308.902L179.168 313.764L174.124 313.712ZM174.124 316V313.712L177.582 312.516H187.332V316H174.124Z" fill="white"/>
</g>
<path d="M107.492 369L113.828 353.6H115.588L121.88 369H119.152L114.224 356.526H115.148L110.176 369H107.492ZM110.616 366.03V363.83H118.778V366.03H110.616ZM127.7 369.22C126.806 369.22 126.006 369.022 125.302 368.626C124.613 368.23 124.07 367.687 123.674 366.998C123.293 366.294 123.102 365.487 123.102 364.578V358.44H125.522V364.468C125.522 364.981 125.603 365.421 125.764 365.788C125.94 366.14 126.19 366.411 126.512 366.602C126.85 366.793 127.246 366.888 127.7 366.888C128.404 366.888 128.94 366.683 129.306 366.272C129.688 365.847 129.878 365.245 129.878 364.468V358.44H132.298V364.578C132.298 365.502 132.1 366.316 131.704 367.02C131.323 367.709 130.788 368.252 130.098 368.648C129.409 369.029 128.61 369.22 127.7 369.22ZM139.154 369.22C138.2 369.22 137.335 368.978 136.558 368.494C135.795 368.01 135.186 367.357 134.732 366.536C134.292 365.7 134.072 364.769 134.072 363.742C134.072 362.701 134.292 361.769 134.732 360.948C135.186 360.112 135.795 359.452 136.558 358.968C137.335 358.469 138.2 358.22 139.154 358.22C139.96 358.22 140.672 358.396 141.288 358.748C141.918 359.085 142.417 359.555 142.784 360.156C143.15 360.757 143.334 361.439 143.334 362.202V365.238C143.334 366.001 143.15 366.683 142.784 367.284C142.432 367.885 141.94 368.362 141.31 368.714C140.679 369.051 139.96 369.22 139.154 369.22ZM139.55 366.932C140.151 366.932 140.672 366.8 141.112 366.536C141.566 366.257 141.918 365.876 142.168 365.392C142.417 364.908 142.542 364.351 142.542 363.72C142.542 363.089 142.417 362.532 142.168 362.048C141.918 361.564 141.566 361.19 141.112 360.926C140.672 360.647 140.151 360.508 139.55 360.508C138.963 360.508 138.442 360.647 137.988 360.926C137.548 361.19 137.196 361.564 136.932 362.048C136.682 362.532 136.558 363.089 136.558 363.72C136.558 364.351 136.682 364.908 136.932 365.392C137.196 365.876 137.548 366.257 137.988 366.536C138.442 366.8 138.963 366.932 139.55 366.932ZM144.808 369H142.388V366.162L142.806 363.588L142.388 361.036V353.16H144.808V369ZM147.515 369V358.44H149.935V369H147.515ZM148.725 356.504C148.315 356.504 147.97 356.365 147.691 356.086C147.427 355.807 147.295 355.463 147.295 355.052C147.295 354.641 147.427 354.297 147.691 354.018C147.97 353.739 148.315 353.6 148.725 353.6C149.151 353.6 149.495 353.739 149.759 354.018C150.023 354.297 150.155 354.641 150.155 355.052C150.155 355.463 150.023 355.807 149.759 356.086C149.495 356.365 149.151 356.504 148.725 356.504ZM154.256 369V354.04H156.676V369H154.256ZM151.726 360.64V358.44H159.206V360.64H151.726ZM175.62 369L168.316 361.014C167.774 360.413 167.363 359.841 167.084 359.298C166.82 358.755 166.688 358.154 166.688 357.494C166.688 356.717 166.879 356.02 167.26 355.404C167.642 354.773 168.162 354.275 168.822 353.908C169.482 353.541 170.238 353.358 171.088 353.358C171.734 353.358 172.32 353.468 172.848 353.688C173.376 353.893 173.838 354.172 174.234 354.524C174.645 354.861 174.982 355.235 175.246 355.646L173.508 357.186C173.186 356.746 172.834 356.387 172.452 356.108C172.086 355.829 171.631 355.69 171.088 355.69C170.531 355.69 170.062 355.859 169.68 356.196C169.299 356.519 169.108 356.929 169.108 357.428C169.108 357.927 169.211 358.337 169.416 358.66C169.622 358.983 169.908 359.357 170.274 359.782L178.524 369H175.62ZM170.362 369.22C169.306 369.22 168.382 369.022 167.59 368.626C166.813 368.215 166.204 367.658 165.764 366.954C165.339 366.235 165.126 365.421 165.126 364.512C165.126 363.588 165.376 362.759 165.874 362.026C166.388 361.293 167.136 360.699 168.118 360.244L169.24 361.718C168.698 362.011 168.28 362.378 167.986 362.818C167.693 363.243 167.546 363.786 167.546 364.446C167.546 364.974 167.664 365.421 167.898 365.788C168.148 366.155 168.492 366.441 168.932 366.646C169.372 366.837 169.878 366.932 170.45 366.932C171.198 366.932 171.814 366.778 172.298 366.47C172.797 366.162 173.171 365.795 173.42 365.37L175.004 367.218C174.696 367.599 174.3 367.944 173.816 368.252C173.332 368.545 172.797 368.78 172.21 368.956C171.624 369.132 171.008 369.22 170.362 369.22ZM183.982 369V353.6H185.742L192.144 364.138H191L197.402 353.6H199.162V369H196.632V358.044L197.204 358.198L192.452 366.008H190.692L185.94 358.198L186.512 358.044V369H183.982ZM206.593 369.22C205.64 369.22 204.774 368.978 203.997 368.494C203.234 368.01 202.626 367.357 202.171 366.536C201.731 365.7 201.511 364.769 201.511 363.742C201.511 362.701 201.731 361.769 202.171 360.948C202.626 360.112 203.234 359.452 203.997 358.968C204.774 358.469 205.64 358.22 206.593 358.22C207.4 358.22 208.111 358.396 208.727 358.748C209.358 359.085 209.856 359.555 210.223 360.156C210.59 360.757 210.773 361.439 210.773 362.202V365.238C210.773 366.001 210.59 366.683 210.223 367.284C209.871 367.885 209.38 368.362 208.749 368.714C208.118 369.051 207.4 369.22 206.593 369.22ZM206.989 366.932C207.884 366.932 208.602 366.631 209.145 366.03C209.702 365.429 209.981 364.659 209.981 363.72C209.981 363.089 209.856 362.532 209.607 362.048C209.358 361.564 209.006 361.19 208.551 360.926C208.111 360.647 207.59 360.508 206.989 360.508C206.402 360.508 205.882 360.647 205.427 360.926C204.987 361.19 204.635 361.564 204.371 362.048C204.122 362.532 203.997 363.089 203.997 363.72C203.997 364.351 204.122 364.908 204.371 365.392C204.635 365.876 204.987 366.257 205.427 366.536C205.882 366.8 206.402 366.932 206.989 366.932ZM209.827 369V366.162L210.245 363.588L209.827 361.036V358.44H212.247V369H209.827ZM214.933 369V358.44H217.353V369H214.933ZM217.353 363.126L216.517 362.708C216.517 361.373 216.81 360.295 217.397 359.474C217.998 358.638 218.9 358.22 220.103 358.22C220.631 358.22 221.107 358.315 221.533 358.506C221.958 358.697 222.354 359.005 222.721 359.43L221.137 361.058C220.946 360.853 220.733 360.706 220.499 360.618C220.264 360.53 219.993 360.486 219.685 360.486C219.01 360.486 218.453 360.699 218.013 361.124C217.573 361.549 217.353 362.217 217.353 363.126ZM230.602 369L226.136 363.61L230.58 358.44H233.462L228.358 364.248L228.468 362.862L233.682 369H230.602ZM223.892 369V353.16H226.312V369H223.892ZM239.497 369.22C238.441 369.22 237.488 368.985 236.637 368.516C235.801 368.032 235.134 367.372 234.635 366.536C234.151 365.7 233.909 364.761 233.909 363.72C233.909 362.679 234.151 361.747 234.635 360.926C235.119 360.09 235.772 359.43 236.593 358.946C237.429 358.462 238.353 358.22 239.365 358.22C240.348 358.22 241.213 358.447 241.961 358.902C242.724 359.357 243.318 359.98 243.743 360.772C244.183 361.564 244.403 362.466 244.403 363.478C244.403 363.654 244.388 363.837 244.359 364.028C244.344 364.204 244.315 364.402 244.271 364.622H235.603V362.642H243.017L242.115 363.434C242.086 362.789 241.961 362.246 241.741 361.806C241.521 361.366 241.206 361.029 240.795 360.794C240.399 360.559 239.908 360.442 239.321 360.442C238.705 360.442 238.17 360.574 237.715 360.838C237.26 361.102 236.908 361.476 236.659 361.96C236.41 362.429 236.285 362.994 236.285 363.654C236.285 364.314 236.417 364.893 236.681 365.392C236.945 365.891 237.319 366.279 237.803 366.558C238.287 366.822 238.844 366.954 239.475 366.954C240.018 366.954 240.516 366.859 240.971 366.668C241.44 366.477 241.836 366.199 242.159 365.832L243.699 367.394C243.186 367.995 242.562 368.45 241.829 368.758C241.096 369.066 240.318 369.22 239.497 369.22ZM247.67 369V354.04H250.09V369H247.67ZM245.14 360.64V358.44H252.62V360.64H245.14ZM140.277 401L146.613 385.6H148.373L154.665 401H151.937L147.009 388.526H147.933L142.961 401H140.277ZM143.401 398.03V395.83H151.563V398.03H143.401ZM163.776 401V394.906C163.776 394.202 163.549 393.623 163.094 393.168C162.654 392.713 162.082 392.486 161.378 392.486C160.909 392.486 160.491 392.589 160.124 392.794C159.758 392.999 159.472 393.285 159.266 393.652C159.061 394.019 158.958 394.437 158.958 394.906L158.012 394.378C158.012 393.571 158.188 392.86 158.54 392.244C158.892 391.613 159.376 391.122 159.992 390.77C160.623 390.403 161.327 390.22 162.104 390.22C162.896 390.22 163.6 390.425 164.216 390.836C164.832 391.232 165.316 391.753 165.668 392.398C166.02 393.029 166.196 393.689 166.196 394.378V401H163.776ZM156.538 401V390.44H158.958V401H156.538ZM173.077 401.22C172.124 401.22 171.259 400.978 170.481 400.494C169.719 400.01 169.11 399.357 168.655 398.536C168.215 397.7 167.995 396.769 167.995 395.742C167.995 394.701 168.215 393.769 168.655 392.948C169.11 392.112 169.719 391.452 170.481 390.968C171.259 390.469 172.124 390.22 173.077 390.22C173.884 390.22 174.595 390.396 175.211 390.748C175.842 391.085 176.341 391.555 176.707 392.156C177.074 392.757 177.257 393.439 177.257 394.202V397.238C177.257 398.001 177.074 398.683 176.707 399.284C176.355 399.885 175.864 400.362 175.233 400.714C174.603 401.051 173.884 401.22 173.077 401.22ZM173.473 398.932C174.368 398.932 175.087 398.631 175.629 398.03C176.187 397.429 176.465 396.659 176.465 395.72C176.465 395.089 176.341 394.532 176.091 394.048C175.842 393.564 175.49 393.19 175.035 392.926C174.595 392.647 174.075 392.508 173.473 392.508C172.887 392.508 172.366 392.647 171.911 392.926C171.471 393.19 171.119 393.564 170.855 394.048C170.606 394.532 170.481 395.089 170.481 395.72C170.481 396.351 170.606 396.908 170.855 397.392C171.119 397.876 171.471 398.257 171.911 398.536C172.366 398.8 172.887 398.932 173.473 398.932ZM176.311 401V398.162L176.729 395.588L176.311 393.036V390.44H178.731V401H176.311ZM181.417 401V385.16H183.837V401H181.417ZM189.94 401.11L185.43 390.44H188.092L191.172 398.272H190.402L193.658 390.44H196.342L191.436 401.11H189.94ZM186.794 405.4L190.072 398.646L191.436 401.11L189.478 405.4H186.794ZM200.984 401.22C200.398 401.22 199.833 401.147 199.29 401C198.748 400.839 198.249 400.619 197.794 400.34C197.34 400.047 196.944 399.695 196.606 399.284L198.146 397.744C198.513 398.169 198.931 398.492 199.4 398.712C199.884 398.917 200.427 399.02 201.028 399.02C201.571 399.02 201.982 398.939 202.26 398.778C202.539 398.617 202.678 398.382 202.678 398.074C202.678 397.751 202.546 397.502 202.282 397.326C202.018 397.15 201.674 397.003 201.248 396.886C200.838 396.754 200.398 396.622 199.928 396.49C199.474 396.358 199.034 396.182 198.608 395.962C198.198 395.727 197.86 395.412 197.596 395.016C197.332 394.62 197.2 394.107 197.2 393.476C197.2 392.801 197.354 392.222 197.662 391.738C197.985 391.254 198.432 390.88 199.004 390.616C199.591 390.352 200.288 390.22 201.094 390.22C201.945 390.22 202.693 390.374 203.338 390.682C203.998 390.975 204.548 391.423 204.988 392.024L203.448 393.564C203.14 393.183 202.788 392.897 202.392 392.706C201.996 392.515 201.542 392.42 201.028 392.42C200.544 392.42 200.17 392.493 199.906 392.64C199.642 392.787 199.51 392.999 199.51 393.278C199.51 393.571 199.642 393.799 199.906 393.96C200.17 394.121 200.508 394.261 200.918 394.378C201.344 394.495 201.784 394.627 202.238 394.774C202.708 394.906 203.148 395.097 203.558 395.346C203.984 395.581 204.328 395.903 204.592 396.314C204.856 396.71 204.988 397.231 204.988 397.876C204.988 398.903 204.629 399.717 203.91 400.318C203.192 400.919 202.216 401.22 200.984 401.22ZM207.006 401V390.44H209.426V401H207.006ZM208.216 388.504C207.805 388.504 207.46 388.365 207.182 388.086C206.918 387.807 206.786 387.463 206.786 387.052C206.786 386.641 206.918 386.297 207.182 386.018C207.46 385.739 207.805 385.6 208.216 385.6C208.641 385.6 208.986 385.739 209.25 386.018C209.514 386.297 209.646 386.641 209.646 387.052C209.646 387.463 209.514 387.807 209.25 388.086C208.986 388.365 208.641 388.504 208.216 388.504ZM215.594 401.22C215.007 401.22 214.443 401.147 213.9 401C213.357 400.839 212.859 400.619 212.404 400.34C211.949 400.047 211.553 399.695 211.216 399.284L212.756 397.744C213.123 398.169 213.541 398.492 214.01 398.712C214.494 398.917 215.037 399.02 215.638 399.02C216.181 399.02 216.591 398.939 216.87 398.778C217.149 398.617 217.288 398.382 217.288 398.074C217.288 397.751 217.156 397.502 216.892 397.326C216.628 397.15 216.283 397.003 215.858 396.886C215.447 396.754 215.007 396.622 214.538 396.49C214.083 396.358 213.643 396.182 213.218 395.962C212.807 395.727 212.47 395.412 212.206 395.016C211.942 394.62 211.81 394.107 211.81 393.476C211.81 392.801 211.964 392.222 212.272 391.738C212.595 391.254 213.042 390.88 213.614 390.616C214.201 390.352 214.897 390.22 215.704 390.22C216.555 390.22 217.303 390.374 217.948 390.682C218.608 390.975 219.158 391.423 219.598 392.024L218.058 393.564C217.75 393.183 217.398 392.897 217.002 392.706C216.606 392.515 216.151 392.42 215.638 392.42C215.154 392.42 214.78 392.493 214.516 392.64C214.252 392.787 214.12 392.999 214.12 393.278C214.12 393.571 214.252 393.799 214.516 393.96C214.78 394.121 215.117 394.261 215.528 394.378C215.953 394.495 216.393 394.627 216.848 394.774C217.317 394.906 217.757 395.097 218.168 395.346C218.593 395.581 218.938 395.903 219.202 396.314C219.466 396.71 219.598 397.231 219.598 397.876C219.598 398.903 219.239 399.717 218.52 400.318C217.801 400.919 216.826 401.22 215.594 401.22Z" fill="#0564F2"/>
<g clip-path="url(#clip3_590_612)">
<path d="M174.518 474.269C175.838 468.427 184.162 468.427 185.482 474.269C186.337 478.055 190.682 479.855 193.965 477.783C199.029 474.585 204.915 480.471 201.717 485.535C199.645 488.818 201.445 493.163 205.231 494.018C211.073 495.338 211.073 503.662 205.231 504.982C201.445 505.837 199.645 510.182 201.717 513.465C204.915 518.529 199.029 524.415 193.965 521.217C190.682 519.145 186.337 520.945 185.482 524.731C184.162 530.573 175.838 530.573 174.518 524.731C173.663 520.945 169.318 519.145 166.035 521.217C160.971 524.415 155.085 518.529 158.283 513.465C160.355 510.182 158.555 505.837 154.769 504.982C148.927 503.662 148.927 495.338 154.769 494.018C158.555 493.163 160.355 488.818 158.283 485.535C155.085 480.471 160.971 474.585 166.035 477.783C169.318 479.855 173.663 478.055 174.518 474.269Z" fill="#384BF8"/>
<path d="M180.078 509.286C178.813 509.286 177.651 509.069 176.594 508.636C175.537 508.185 174.644 507.544 173.916 506.712L176.542 504.086C176.871 504.571 177.348 504.97 177.972 505.282C178.613 505.577 179.289 505.724 180 505.724C180.641 505.724 181.196 505.611 181.664 505.386C182.132 505.161 182.496 504.84 182.756 504.424C183.033 504.008 183.172 503.514 183.172 502.942C183.172 502.37 183.033 501.885 182.756 501.486C182.496 501.07 182.106 500.749 181.586 500.524C181.083 500.299 180.477 500.186 179.766 500.186C179.437 500.186 179.09 500.212 178.726 500.264C178.379 500.299 178.085 500.359 177.842 500.446L179.636 498.184C180.121 498.045 180.581 497.933 181.014 497.846C181.465 497.742 181.881 497.69 182.262 497.69C183.198 497.69 184.039 497.915 184.784 498.366C185.529 498.799 186.119 499.423 186.552 500.238C187.003 501.035 187.228 501.989 187.228 503.098C187.228 504.311 186.925 505.386 186.318 506.322C185.729 507.258 184.897 507.986 183.822 508.506C182.765 509.026 181.517 509.286 180.078 509.286ZM177.842 500.446V498.184L182.314 492.932L186.89 492.906L182.236 498.21L177.842 500.446ZM175.06 494.102V490.644H186.89V492.906L183.692 494.102H175.06Z" fill="white"/>
</g>
<path d="M91.2481 562.22C90.0308 562.22 88.9968 562 88.1461 561.56C87.2955 561.12 86.5328 560.475 85.8581 559.624L87.5741 557.908C87.9995 558.524 88.5055 559.008 89.0921 559.36C89.6788 559.697 90.4268 559.866 91.3361 559.866C92.1868 559.866 92.8615 559.69 93.3601 559.338C93.8735 558.986 94.1301 558.502 94.1301 557.886C94.1301 557.373 93.9981 556.955 93.7341 556.632C93.4701 556.309 93.1181 556.045 92.6781 555.84C92.2528 555.62 91.7761 555.429 91.2481 555.268C90.7348 555.092 90.2141 554.901 89.6861 554.696C89.1728 554.476 88.6961 554.205 88.2561 553.882C87.8308 553.559 87.4861 553.141 87.2221 552.628C86.9581 552.115 86.8261 551.462 86.8261 550.67C86.8261 549.761 87.0461 548.991 87.4861 548.36C87.9408 547.715 88.5495 547.223 89.3121 546.886C90.0748 546.549 90.9255 546.38 91.8641 546.38C92.8761 546.38 93.7781 546.578 94.5701 546.974C95.3768 547.37 96.0295 547.876 96.5281 548.492L94.8121 550.208C94.3721 549.709 93.9101 549.343 93.4261 549.108C92.9568 548.859 92.4141 548.734 91.7981 548.734C91.0355 548.734 90.4341 548.888 89.9941 549.196C89.5688 549.504 89.3561 549.937 89.3561 550.494C89.3561 550.963 89.4881 551.345 89.7521 551.638C90.0161 551.917 90.3608 552.159 90.7861 552.364C91.2261 552.555 91.7028 552.738 92.2161 552.914C92.7441 553.09 93.2648 553.288 93.7781 553.508C94.3061 553.728 94.7828 554.014 95.2081 554.366C95.6481 554.703 96.0001 555.143 96.2641 555.686C96.5281 556.229 96.6601 556.911 96.6601 557.732C96.6601 559.111 96.1688 560.203 95.1861 561.01C94.2181 561.817 92.9055 562.22 91.2481 562.22ZM100.459 562V547.04H102.879V562H100.459ZM97.9287 553.64V551.44H105.409V553.64H97.9287ZM107.167 562V551.44H109.587V562H107.167ZM109.587 556.126L108.751 555.708C108.751 554.373 109.045 553.295 109.631 552.474C110.233 551.638 111.135 551.22 112.337 551.22C112.865 551.22 113.342 551.315 113.767 551.506C114.193 551.697 114.589 552.005 114.955 552.43L113.371 554.058C113.181 553.853 112.968 553.706 112.733 553.618C112.499 553.53 112.227 553.486 111.919 553.486C111.245 553.486 110.687 553.699 110.247 554.124C109.807 554.549 109.587 555.217 109.587 556.126ZM120.226 562.22C119.273 562.22 118.407 561.978 117.63 561.494C116.867 561.01 116.259 560.357 115.804 559.536C115.364 558.7 115.144 557.769 115.144 556.742C115.144 555.701 115.364 554.769 115.804 553.948C116.259 553.112 116.867 552.452 117.63 551.968C118.407 551.469 119.273 551.22 120.226 551.22C121.033 551.22 121.744 551.396 122.36 551.748C122.991 552.085 123.489 552.555 123.856 553.156C124.223 553.757 124.406 554.439 124.406 555.202V558.238C124.406 559.001 124.223 559.683 123.856 560.284C123.504 560.885 123.013 561.362 122.382 561.714C121.751 562.051 121.033 562.22 120.226 562.22ZM120.622 559.932C121.517 559.932 122.235 559.631 122.778 559.03C123.335 558.429 123.614 557.659 123.614 556.72C123.614 556.089 123.489 555.532 123.24 555.048C122.991 554.564 122.639 554.19 122.184 553.926C121.744 553.647 121.223 553.508 120.622 553.508C120.035 553.508 119.515 553.647 119.06 553.926C118.62 554.19 118.268 554.564 118.004 555.048C117.755 555.532 117.63 556.089 117.63 556.72C117.63 557.351 117.755 557.908 118.004 558.392C118.268 558.876 118.62 559.257 119.06 559.536C119.515 559.8 120.035 559.932 120.622 559.932ZM123.46 562V559.162L123.878 556.588L123.46 554.036V551.44H125.88V562H123.46ZM130.172 562V547.04H132.592V562H130.172ZM127.642 553.64V551.44H135.122V553.64H127.642ZM141.485 562.22C140.429 562.22 139.476 561.985 138.625 561.516C137.789 561.032 137.122 560.372 136.623 559.536C136.139 558.7 135.897 557.761 135.897 556.72C135.897 555.679 136.139 554.747 136.623 553.926C137.107 553.09 137.76 552.43 138.581 551.946C139.417 551.462 140.341 551.22 141.353 551.22C142.336 551.22 143.201 551.447 143.949 551.902C144.712 552.357 145.306 552.98 145.731 553.772C146.171 554.564 146.391 555.466 146.391 556.478C146.391 556.654 146.377 556.837 146.347 557.028C146.333 557.204 146.303 557.402 146.259 557.622H137.591V555.642H145.005L144.103 556.434C144.074 555.789 143.949 555.246 143.729 554.806C143.509 554.366 143.194 554.029 142.783 553.794C142.387 553.559 141.896 553.442 141.309 553.442C140.693 553.442 140.158 553.574 139.703 553.838C139.249 554.102 138.897 554.476 138.647 554.96C138.398 555.429 138.273 555.994 138.273 556.654C138.273 557.314 138.405 557.893 138.669 558.392C138.933 558.891 139.307 559.279 139.791 559.558C140.275 559.822 140.833 559.954 141.463 559.954C142.006 559.954 142.505 559.859 142.959 559.668C143.429 559.477 143.825 559.199 144.147 558.832L145.687 560.394C145.174 560.995 144.551 561.45 143.817 561.758C143.084 562.066 142.307 562.22 141.485 562.22ZM152.731 566.62C151.617 566.62 150.641 566.415 149.805 566.004C148.969 565.608 148.295 565.043 147.781 564.31L149.365 562.726C149.791 563.254 150.275 563.65 150.817 563.914C151.36 564.178 152.013 564.31 152.775 564.31C153.729 564.31 154.484 564.061 155.041 563.562C155.599 563.078 155.877 562.411 155.877 561.56V558.964L156.295 556.632L155.877 554.278V551.44H158.297V561.56C158.297 562.572 158.063 563.452 157.593 564.2C157.124 564.963 156.471 565.557 155.635 565.982C154.799 566.407 153.831 566.62 152.731 566.62ZM152.621 561.78C151.683 561.78 150.832 561.553 150.069 561.098C149.321 560.629 148.727 559.991 148.287 559.184C147.862 558.377 147.649 557.475 147.649 556.478C147.649 555.481 147.862 554.586 148.287 553.794C148.727 553.002 149.321 552.379 150.069 551.924C150.832 551.455 151.683 551.22 152.621 551.22C153.457 551.22 154.191 551.389 154.821 551.726C155.452 552.063 155.943 552.533 156.295 553.134C156.647 553.721 156.823 554.41 156.823 555.202V557.798C156.823 558.575 156.64 559.265 156.273 559.866C155.921 560.467 155.43 560.937 154.799 561.274C154.169 561.611 153.443 561.78 152.621 561.78ZM153.105 559.492C153.692 559.492 154.205 559.367 154.645 559.118C155.085 558.869 155.423 558.524 155.657 558.084C155.907 557.629 156.031 557.101 156.031 556.5C156.031 555.899 155.907 555.378 155.657 554.938C155.423 554.483 155.085 554.131 154.645 553.882C154.205 553.633 153.692 553.508 153.105 553.508C152.519 553.508 151.998 553.633 151.543 553.882C151.103 554.131 150.759 554.483 150.509 554.938C150.26 555.378 150.135 555.899 150.135 556.5C150.135 557.087 150.26 557.607 150.509 558.062C150.759 558.517 151.103 558.869 151.543 559.118C151.998 559.367 152.519 559.492 153.105 559.492ZM164.396 562.11L159.886 551.44H162.548L165.628 559.272H164.858L168.114 551.44H170.798L165.892 562.11H164.396ZM161.25 566.4L164.528 559.646L165.892 562.11L163.934 566.4H161.25ZM187.029 562L179.725 554.014C179.182 553.413 178.771 552.841 178.493 552.298C178.229 551.755 178.097 551.154 178.097 550.494C178.097 549.717 178.287 549.02 178.669 548.404C179.05 547.773 179.571 547.275 180.231 546.908C180.891 546.541 181.646 546.358 182.497 546.358C183.142 546.358 183.729 546.468 184.257 546.688C184.785 546.893 185.247 547.172 185.643 547.524C186.053 547.861 186.391 548.235 186.655 548.646L184.917 550.186C184.594 549.746 184.242 549.387 183.861 549.108C183.494 548.829 183.039 548.69 182.497 548.69C181.939 548.69 181.47 548.859 181.089 549.196C180.707 549.519 180.517 549.929 180.517 550.428C180.517 550.927 180.619 551.337 180.825 551.66C181.03 551.983 181.316 552.357 181.683 552.782L189.933 562H187.029ZM181.771 562.22C180.715 562.22 179.791 562.022 178.999 561.626C178.221 561.215 177.613 560.658 177.173 559.954C176.747 559.235 176.535 558.421 176.535 557.512C176.535 556.588 176.784 555.759 177.283 555.026C177.796 554.293 178.544 553.699 179.527 553.244L180.649 554.718C180.106 555.011 179.688 555.378 179.395 555.818C179.101 556.243 178.955 556.786 178.955 557.446C178.955 557.974 179.072 558.421 179.307 558.788C179.556 559.155 179.901 559.441 180.341 559.646C180.781 559.837 181.287 559.932 181.859 559.932C182.607 559.932 183.223 559.778 183.707 559.47C184.205 559.162 184.579 558.795 184.829 558.37L186.413 560.218C186.105 560.599 185.709 560.944 185.225 561.252C184.741 561.545 184.205 561.78 183.619 561.956C183.032 562.132 182.416 562.22 181.771 562.22ZM202.386 562.22C201.271 562.22 200.237 562.022 199.284 561.626C198.345 561.215 197.524 560.651 196.82 559.932C196.116 559.199 195.573 558.355 195.192 557.402C194.81 556.434 194.62 555.4 194.62 554.3C194.62 553.2 194.81 552.173 195.192 551.22C195.573 550.252 196.116 549.409 196.82 548.69C197.524 547.971 198.345 547.407 199.284 546.996C200.237 546.585 201.271 546.38 202.386 546.38C203.632 546.38 204.71 546.585 205.62 546.996C206.529 547.407 207.336 547.964 208.04 548.668L206.324 550.384C205.869 549.885 205.312 549.497 204.652 549.218C204.006 548.939 203.251 548.8 202.386 548.8C201.623 548.8 200.926 548.932 200.296 549.196C199.665 549.46 199.115 549.841 198.646 550.34C198.191 550.824 197.839 551.403 197.59 552.078C197.34 552.753 197.216 553.493 197.216 554.3C197.216 555.107 197.34 555.847 197.59 556.522C197.839 557.197 198.191 557.783 198.646 558.282C199.115 558.766 199.665 559.14 200.296 559.404C200.926 559.668 201.623 559.8 202.386 559.8C203.324 559.8 204.116 559.661 204.762 559.382C205.422 559.089 205.979 558.693 206.434 558.194L208.15 559.91C207.446 560.629 206.617 561.193 205.664 561.604C204.71 562.015 203.618 562.22 202.386 562.22ZM217.315 562V555.906C217.315 555.202 217.088 554.623 216.633 554.168C216.193 553.713 215.621 553.486 214.917 553.486C214.448 553.486 214.03 553.589 213.663 553.794C213.297 553.999 213.011 554.285 212.805 554.652C212.6 555.019 212.497 555.437 212.497 555.906L211.551 555.378C211.551 554.571 211.727 553.86 212.079 553.244C212.431 552.613 212.915 552.122 213.531 551.77C214.162 551.403 214.866 551.22 215.643 551.22C216.435 551.22 217.139 551.396 217.755 551.748C218.371 552.1 218.855 552.591 219.207 553.222C219.559 553.838 219.735 554.557 219.735 555.378V562H217.315ZM210.077 562V546.16H212.497V562H210.077ZM226.617 562.22C225.663 562.22 224.798 561.978 224.021 561.494C223.258 561.01 222.649 560.357 222.195 559.536C221.755 558.7 221.535 557.769 221.535 556.742C221.535 555.701 221.755 554.769 222.195 553.948C222.649 553.112 223.258 552.452 224.021 551.968C224.798 551.469 225.663 551.22 226.617 551.22C227.423 551.22 228.135 551.396 228.751 551.748C229.381 552.085 229.88 552.555 230.247 553.156C230.613 553.757 230.797 554.439 230.797 555.202V558.238C230.797 559.001 230.613 559.683 230.247 560.284C229.895 560.885 229.403 561.362 228.773 561.714C228.142 562.051 227.423 562.22 226.617 562.22ZM227.013 559.932C227.907 559.932 228.626 559.631 229.169 559.03C229.726 558.429 230.005 557.659 230.005 556.72C230.005 556.089 229.88 555.532 229.631 555.048C229.381 554.564 229.029 554.19 228.575 553.926C228.135 553.647 227.614 553.508 227.013 553.508C226.426 553.508 225.905 553.647 225.451 553.926C225.011 554.19 224.659 554.564 224.395 555.048C224.145 555.532 224.021 556.089 224.021 556.72C224.021 557.351 224.145 557.908 224.395 558.392C224.659 558.876 225.011 559.257 225.451 559.536C225.905 559.8 226.426 559.932 227.013 559.932ZM229.851 562V559.162L230.269 556.588L229.851 554.036V551.44H232.271V562H229.851ZM242.194 562V555.906C242.194 555.202 241.967 554.623 241.512 554.168C241.072 553.713 240.5 553.486 239.796 553.486C239.327 553.486 238.909 553.589 238.542 553.794C238.176 553.999 237.89 554.285 237.684 554.652C237.479 555.019 237.376 555.437 237.376 555.906L236.43 555.378C236.43 554.571 236.606 553.86 236.958 553.244C237.31 552.613 237.794 552.122 238.41 551.77C239.041 551.403 239.745 551.22 240.522 551.22C241.314 551.22 242.018 551.425 242.634 551.836C243.25 552.232 243.734 552.753 244.086 553.398C244.438 554.029 244.614 554.689 244.614 555.378V562H242.194ZM234.956 562V551.44H237.376V562H234.956ZM254.311 562V555.906C254.311 555.202 254.084 554.623 253.629 554.168C253.189 553.713 252.617 553.486 251.913 553.486C251.444 553.486 251.026 553.589 250.659 553.794C250.293 553.999 250.007 554.285 249.801 554.652C249.596 555.019 249.493 555.437 249.493 555.906L248.547 555.378C248.547 554.571 248.723 553.86 249.075 553.244C249.427 552.613 249.911 552.122 250.527 551.77C251.158 551.403 251.862 551.22 252.639 551.22C253.431 551.22 254.135 551.425 254.751 551.836C255.367 552.232 255.851 552.753 256.203 553.398C256.555 554.029 256.731 554.689 256.731 555.378V562H254.311ZM247.073 562V551.44H249.493V562H247.073ZM264.097 562.22C263.041 562.22 262.087 561.985 261.237 561.516C260.401 561.032 259.733 560.372 259.235 559.536C258.751 558.7 258.509 557.761 258.509 556.72C258.509 555.679 258.751 554.747 259.235 553.926C259.719 553.09 260.371 552.43 261.193 551.946C262.029 551.462 262.953 551.22 263.965 551.22C264.947 551.22 265.813 551.447 266.561 551.902C267.323 552.357 267.917 552.98 268.343 553.772C268.783 554.564 269.003 555.466 269.003 556.478C269.003 556.654 268.988 556.837 268.959 557.028C268.944 557.204 268.915 557.402 268.871 557.622H260.203V555.642H267.617L266.715 556.434C266.685 555.789 266.561 555.246 266.341 554.806C266.121 554.366 265.805 554.029 265.395 553.794C264.999 553.559 264.507 553.442 263.921 553.442C263.305 553.442 262.769 553.574 262.315 553.838C261.86 554.102 261.508 554.476 261.259 554.96C261.009 555.429 260.885 555.994 260.885 556.654C260.885 557.314 261.017 557.893 261.281 558.392C261.545 558.891 261.919 559.279 262.403 559.558C262.887 559.822 263.444 559.954 264.075 559.954C264.617 559.954 265.116 559.859 265.571 559.668C266.04 559.477 266.436 559.199 266.759 558.832L268.299 560.394C267.785 560.995 267.162 561.45 266.429 561.758C265.695 562.066 264.918 562.22 264.097 562.22ZM270.943 562V546.16H273.363V562H270.943ZM140.753 588.192V585.992H144.603C145.131 585.992 145.593 585.889 145.989 585.684C146.399 585.464 146.722 585.163 146.957 584.782C147.191 584.386 147.309 583.924 147.309 583.396C147.309 582.868 147.191 582.413 146.957 582.032C146.722 581.636 146.399 581.335 145.989 581.13C145.593 580.91 145.131 580.8 144.603 580.8H140.753V578.6H144.735C145.703 578.6 146.568 578.798 147.331 579.194C148.108 579.59 148.717 580.147 149.157 580.866C149.611 581.585 149.839 582.428 149.839 583.396C149.839 584.364 149.611 585.207 149.157 585.926C148.717 586.645 148.108 587.202 147.331 587.598C146.568 587.994 145.703 588.192 144.735 588.192H140.753ZM139.015 594V578.6H141.545V594H139.015ZM151.962 594V578.16H154.382V594H151.962ZM161.497 594.22C160.544 594.22 159.679 593.978 158.901 593.494C158.139 593.01 157.53 592.357 157.075 591.536C156.635 590.7 156.415 589.769 156.415 588.742C156.415 587.701 156.635 586.769 157.075 585.948C157.53 585.112 158.139 584.452 158.901 583.968C159.679 583.469 160.544 583.22 161.497 583.22C162.304 583.22 163.015 583.396 163.631 583.748C164.262 584.085 164.761 584.555 165.127 585.156C165.494 585.757 165.677 586.439 165.677 587.202V590.238C165.677 591.001 165.494 591.683 165.127 592.284C164.775 592.885 164.284 593.362 163.653 593.714C163.023 594.051 162.304 594.22 161.497 594.22ZM161.893 591.932C162.788 591.932 163.507 591.631 164.049 591.03C164.607 590.429 164.885 589.659 164.885 588.72C164.885 588.089 164.761 587.532 164.511 587.048C164.262 586.564 163.91 586.19 163.455 585.926C163.015 585.647 162.495 585.508 161.893 585.508C161.307 585.508 160.786 585.647 160.331 585.926C159.891 586.19 159.539 586.564 159.275 587.048C159.026 587.532 158.901 588.089 158.901 588.72C158.901 589.351 159.026 589.908 159.275 590.392C159.539 590.876 159.891 591.257 160.331 591.536C160.786 591.8 161.307 591.932 161.893 591.932ZM164.731 594V591.162L165.149 588.588L164.731 586.036V583.44H167.151V594H164.731ZM177.075 594V587.906C177.075 587.202 176.848 586.623 176.393 586.168C175.953 585.713 175.381 585.486 174.677 585.486C174.208 585.486 173.79 585.589 173.423 585.794C173.056 585.999 172.77 586.285 172.565 586.652C172.36 587.019 172.257 587.437 172.257 587.906L171.311 587.378C171.311 586.571 171.487 585.86 171.839 585.244C172.191 584.613 172.675 584.122 173.291 583.77C173.922 583.403 174.626 583.22 175.403 583.22C176.195 583.22 176.899 583.425 177.515 583.836C178.131 584.232 178.615 584.753 178.967 585.398C179.319 586.029 179.495 586.689 179.495 587.378V594H177.075ZM169.837 594V583.44H172.257V594H169.837ZM189.192 594V587.906C189.192 587.202 188.965 586.623 188.51 586.168C188.07 585.713 187.498 585.486 186.794 585.486C186.325 585.486 185.907 585.589 185.54 585.794C185.174 585.999 184.888 586.285 184.682 586.652C184.477 587.019 184.374 587.437 184.374 587.906L183.428 587.378C183.428 586.571 183.604 585.86 183.956 585.244C184.308 584.613 184.792 584.122 185.408 583.77C186.039 583.403 186.743 583.22 187.52 583.22C188.312 583.22 189.016 583.425 189.632 583.836C190.248 584.232 190.732 584.753 191.084 585.398C191.436 586.029 191.612 586.689 191.612 587.378V594H189.192ZM181.954 594V583.44H184.374V594H181.954ZM194.093 594V583.44H196.513V594H194.093ZM195.303 581.504C194.893 581.504 194.548 581.365 194.269 581.086C194.005 580.807 193.873 580.463 193.873 580.052C193.873 579.641 194.005 579.297 194.269 579.018C194.548 578.739 194.893 578.6 195.303 578.6C195.729 578.6 196.073 578.739 196.337 579.018C196.601 579.297 196.733 579.641 196.733 580.052C196.733 580.463 196.601 580.807 196.337 581.086C196.073 581.365 195.729 581.504 195.303 581.504ZM206.466 594V587.906C206.466 587.202 206.238 586.623 205.784 586.168C205.344 585.713 204.772 585.486 204.068 585.486C203.598 585.486 203.18 585.589 202.814 585.794C202.447 585.999 202.161 586.285 201.956 586.652C201.75 587.019 201.648 587.437 201.648 587.906L200.702 587.378C200.702 586.571 200.878 585.86 201.23 585.244C201.582 584.613 202.066 584.122 202.682 583.77C203.312 583.403 204.016 583.22 204.794 583.22C205.586 583.22 206.29 583.425 206.906 583.836C207.522 584.232 208.006 584.753 208.358 585.398C208.71 586.029 208.886 586.689 208.886 587.378V594H206.466ZM199.228 594V583.44H201.648V594H199.228ZM215.745 598.62C214.63 598.62 213.655 598.415 212.819 598.004C211.983 597.608 211.308 597.043 210.795 596.31L212.379 594.726C212.804 595.254 213.288 595.65 213.831 595.914C214.374 596.178 215.026 596.31 215.789 596.31C216.742 596.31 217.498 596.061 218.055 595.562C218.612 595.078 218.891 594.411 218.891 593.56V590.964L219.309 588.632L218.891 586.278V583.44H221.311V593.56C221.311 594.572 221.076 595.452 220.607 596.2C220.138 596.963 219.485 597.557 218.649 597.982C217.813 598.407 216.845 598.62 215.745 598.62ZM215.635 593.78C214.696 593.78 213.846 593.553 213.083 593.098C212.335 592.629 211.741 591.991 211.301 591.184C210.876 590.377 210.663 589.475 210.663 588.478C210.663 587.481 210.876 586.586 211.301 585.794C211.741 585.002 212.335 584.379 213.083 583.924C213.846 583.455 214.696 583.22 215.635 583.22C216.471 583.22 217.204 583.389 217.835 583.726C218.466 584.063 218.957 584.533 219.309 585.134C219.661 585.721 219.837 586.41 219.837 587.202V589.798C219.837 590.575 219.654 591.265 219.287 591.866C218.935 592.467 218.444 592.937 217.813 593.274C217.182 593.611 216.456 593.78 215.635 593.78ZM216.119 591.492C216.706 591.492 217.219 591.367 217.659 591.118C218.099 590.869 218.436 590.524 218.671 590.084C218.92 589.629 219.045 589.101 219.045 588.5C219.045 587.899 218.92 587.378 218.671 586.938C218.436 586.483 218.099 586.131 217.659 585.882C217.219 585.633 216.706 585.508 216.119 585.508C215.532 585.508 215.012 585.633 214.557 585.882C214.117 586.131 213.772 586.483 213.523 586.938C213.274 587.378 213.149 587.899 213.149 588.5C213.149 589.087 213.274 589.607 213.523 590.062C213.772 590.517 214.117 590.869 214.557 591.118C215.012 591.367 215.532 591.492 216.119 591.492Z" fill="#0564F2"/>
<g clip-path="url(#clip4_590_612)">
<path d="M174.518 663.269C175.838 657.427 184.162 657.427 185.482 663.269C186.337 667.055 190.682 668.855 193.965 666.783C199.029 663.585 204.915 669.471 201.717 674.535C199.645 677.818 201.445 682.163 205.231 683.018C211.073 684.338 211.073 692.662 205.231 693.982C201.445 694.837 199.645 699.182 201.717 702.465C204.915 707.529 199.029 713.415 193.965 710.217C190.682 708.145 186.337 709.945 185.482 713.731C184.162 719.573 175.838 719.573 174.518 713.731C173.663 709.945 169.318 708.145 166.035 710.217C160.971 713.415 155.085 707.529 158.283 702.465C160.355 699.182 158.555 694.837 154.769 693.982C148.927 692.662 148.927 684.338 154.769 683.018C158.555 682.163 160.355 677.818 158.283 674.535C155.085 669.471 160.971 663.585 166.035 666.783C169.318 668.855 173.663 667.055 174.518 663.269Z" fill="#384BF8"/>
<path d="M174.046 691.63L180.078 679.644H184.524L178.362 691.63H174.046ZM174.046 693.918V691.63L175.398 690.46H188.762V693.918H174.046ZM182.704 698V686.638H186.708V698H182.704Z" fill="white"/>
</g>
<path d="M71.5538 751V735.6H74.0838V751H71.5538ZM73.2918 751V748.69H81.9158V751H73.2918ZM73.2918 744.246V742.024H81.1678V744.246H73.2918ZM73.2918 737.91V735.6H81.8058V737.91H73.2918ZM90.8884 751L87.8524 746.534L87.4124 746.138L83.3204 740.44H86.2464L88.9524 744.356L89.3704 744.73L93.7924 751H90.8884ZM83.1224 751L87.3904 745.082L88.7984 746.82L85.9384 751H83.1224ZM89.5904 746.094L88.1604 744.378L90.8004 740.44H93.5944L89.5904 746.094ZM99.999 751.22C98.943 751.22 97.9896 750.985 97.139 750.516C96.303 750.032 95.6356 749.372 95.137 748.536C94.653 747.7 94.411 746.761 94.411 745.72C94.411 744.679 94.653 743.747 95.137 742.926C95.621 742.09 96.2736 741.43 97.095 740.946C97.931 740.462 98.855 740.22 99.867 740.22C100.85 740.22 101.715 740.447 102.463 740.902C103.226 741.357 103.82 741.98 104.245 742.772C104.685 743.564 104.905 744.466 104.905 745.478C104.905 745.654 104.89 745.837 104.861 746.028C104.846 746.204 104.817 746.402 104.773 746.622H96.105V744.642H103.519L102.617 745.434C102.588 744.789 102.463 744.246 102.243 743.806C102.023 743.366 101.708 743.029 101.297 742.794C100.901 742.559 100.41 742.442 99.823 742.442C99.207 742.442 98.6716 742.574 98.217 742.838C97.7623 743.102 97.4103 743.476 97.161 743.96C96.9116 744.429 96.787 744.994 96.787 745.654C96.787 746.314 96.919 746.893 97.183 747.392C97.447 747.891 97.821 748.279 98.305 748.558C98.789 748.822 99.3463 748.954 99.977 748.954C100.52 748.954 101.018 748.859 101.473 748.668C101.942 748.477 102.338 748.199 102.661 747.832L104.201 749.394C103.688 749.995 103.064 750.45 102.331 750.758C101.598 751.066 100.82 751.22 99.999 751.22ZM111.707 751.22C110.666 751.22 109.72 750.978 108.869 750.494C108.033 750.01 107.373 749.35 106.889 748.514C106.405 747.678 106.163 746.747 106.163 745.72C106.163 744.679 106.405 743.747 106.889 742.926C107.373 742.09 108.033 741.43 108.869 740.946C109.72 740.462 110.666 740.22 111.707 740.22C112.528 740.22 113.291 740.381 113.995 740.704C114.714 741.012 115.322 741.459 115.821 742.046L114.237 743.652C113.929 743.285 113.555 743.014 113.115 742.838C112.69 742.647 112.22 742.552 111.707 742.552C111.106 742.552 110.57 742.691 110.101 742.97C109.646 743.234 109.287 743.601 109.023 744.07C108.774 744.539 108.649 745.089 108.649 745.72C108.649 746.336 108.774 746.886 109.023 747.37C109.287 747.839 109.646 748.213 110.101 748.492C110.57 748.756 111.106 748.888 111.707 748.888C112.22 748.888 112.69 748.8 113.115 748.624C113.555 748.433 113.929 748.155 114.237 747.788L115.821 749.394C115.322 749.981 114.714 750.435 113.995 750.758C113.291 751.066 112.528 751.22 111.707 751.22ZM121.9 751.22C121.005 751.22 120.206 751.022 119.502 750.626C118.812 750.23 118.27 749.687 117.874 748.998C117.492 748.294 117.302 747.487 117.302 746.578V740.44H119.722V746.468C119.722 746.981 119.802 747.421 119.964 747.788C120.14 748.14 120.389 748.411 120.712 748.602C121.049 748.793 121.445 748.888 121.9 748.888C122.604 748.888 123.139 748.683 123.506 748.272C123.887 747.847 124.078 747.245 124.078 746.468V740.44H126.498V746.578C126.498 747.502 126.3 748.316 125.904 749.02C125.522 749.709 124.987 750.252 124.298 750.648C123.608 751.029 122.809 751.22 121.9 751.22ZM130.537 751V736.04H132.957V751H130.537ZM128.007 742.64V740.44H135.487V742.64H128.007ZM137.267 751V740.44H139.687V751H137.267ZM138.477 738.504C138.067 738.504 137.722 738.365 137.443 738.086C137.179 737.807 137.047 737.463 137.047 737.052C137.047 736.641 137.179 736.297 137.443 736.018C137.722 735.739 138.067 735.6 138.477 735.6C138.903 735.6 139.247 735.739 139.511 736.018C139.775 736.297 139.907 736.641 139.907 737.052C139.907 737.463 139.775 737.807 139.511 738.086C139.247 738.365 138.903 738.504 138.477 738.504ZM147.242 751.22C146.215 751.22 145.284 750.978 144.448 750.494C143.612 749.995 142.944 749.328 142.446 748.492C141.962 747.656 141.72 746.725 141.72 745.698C141.72 744.671 141.962 743.747 142.446 742.926C142.944 742.105 143.612 741.452 144.448 740.968C145.284 740.469 146.215 740.22 147.242 740.22C148.283 740.22 149.222 740.462 150.058 740.946C150.894 741.43 151.554 742.09 152.038 742.926C152.536 743.747 152.786 744.671 152.786 745.698C152.786 746.725 152.536 747.656 152.038 748.492C151.554 749.328 150.894 749.995 150.058 750.494C149.222 750.978 148.283 751.22 147.242 751.22ZM147.242 748.888C147.843 748.888 148.371 748.756 148.826 748.492C149.295 748.213 149.654 747.832 149.904 747.348C150.168 746.864 150.3 746.314 150.3 745.698C150.3 745.082 150.168 744.539 149.904 744.07C149.64 743.601 149.28 743.234 148.826 742.97C148.371 742.691 147.843 742.552 147.242 742.552C146.655 742.552 146.127 742.691 145.658 742.97C145.203 743.234 144.844 743.601 144.58 744.07C144.33 744.539 144.206 745.082 144.206 745.698C144.206 746.314 144.33 746.864 144.58 747.348C144.844 747.832 145.203 748.213 145.658 748.492C146.127 748.756 146.655 748.888 147.242 748.888ZM162.036 751V744.906C162.036 744.202 161.809 743.623 161.354 743.168C160.914 742.713 160.342 742.486 159.638 742.486C159.169 742.486 158.751 742.589 158.384 742.794C158.017 742.999 157.731 743.285 157.526 743.652C157.321 744.019 157.218 744.437 157.218 744.906L156.272 744.378C156.272 743.571 156.448 742.86 156.8 742.244C157.152 741.613 157.636 741.122 158.252 740.77C158.883 740.403 159.587 740.22 160.364 740.22C161.156 740.22 161.86 740.425 162.476 740.836C163.092 741.232 163.576 741.753 163.928 742.398C164.28 743.029 164.456 743.689 164.456 744.378V751H162.036ZM154.798 751V740.44H157.218V751H154.798ZM181.572 751L174.268 743.014C173.725 742.413 173.314 741.841 173.036 741.298C172.772 740.755 172.64 740.154 172.64 739.494C172.64 738.717 172.83 738.02 173.212 737.404C173.593 736.773 174.114 736.275 174.774 735.908C175.434 735.541 176.189 735.358 177.04 735.358C177.685 735.358 178.272 735.468 178.8 735.688C179.328 735.893 179.79 736.172 180.186 736.524C180.596 736.861 180.934 737.235 181.198 737.646L179.46 739.186C179.137 738.746 178.785 738.387 178.404 738.108C178.037 737.829 177.582 737.69 177.04 737.69C176.482 737.69 176.013 737.859 175.632 738.196C175.25 738.519 175.06 738.929 175.06 739.428C175.06 739.927 175.162 740.337 175.368 740.66C175.573 740.983 175.859 741.357 176.226 741.782L184.476 751H181.572ZM176.314 751.22C175.258 751.22 174.334 751.022 173.542 750.626C172.764 750.215 172.156 749.658 171.716 748.954C171.29 748.235 171.078 747.421 171.078 746.512C171.078 745.588 171.327 744.759 171.826 744.026C172.339 743.293 173.087 742.699 174.07 742.244L175.192 743.718C174.649 744.011 174.231 744.378 173.938 744.818C173.644 745.243 173.498 745.786 173.498 746.446C173.498 746.974 173.615 747.421 173.85 747.788C174.099 748.155 174.444 748.441 174.884 748.646C175.324 748.837 175.83 748.932 176.402 748.932C177.15 748.932 177.766 748.778 178.25 748.47C178.748 748.162 179.122 747.795 179.372 747.37L180.956 749.218C180.648 749.599 180.252 749.944 179.768 750.252C179.284 750.545 178.748 750.78 178.162 750.956C177.575 751.132 176.959 751.22 176.314 751.22ZM196.929 751.22C195.814 751.22 194.78 751.022 193.827 750.626C192.888 750.215 192.067 749.651 191.363 748.932C190.659 748.199 190.116 747.355 189.735 746.402C189.353 745.434 189.163 744.4 189.163 743.3C189.163 742.2 189.353 741.173 189.735 740.22C190.116 739.252 190.659 738.409 191.363 737.69C192.067 736.971 192.888 736.407 193.827 735.996C194.78 735.585 195.814 735.38 196.929 735.38C198.175 735.38 199.253 735.585 200.163 735.996C201.072 736.407 201.879 736.964 202.583 737.668L200.867 739.384C200.412 738.885 199.855 738.497 199.195 738.218C198.549 737.939 197.794 737.8 196.929 737.8C196.166 737.8 195.469 737.932 194.839 738.196C194.208 738.46 193.658 738.841 193.189 739.34C192.734 739.824 192.382 740.403 192.133 741.078C191.883 741.753 191.759 742.493 191.759 743.3C191.759 744.107 191.883 744.847 192.133 745.522C192.382 746.197 192.734 746.783 193.189 747.282C193.658 747.766 194.208 748.14 194.839 748.404C195.469 748.668 196.166 748.8 196.929 748.8C197.867 748.8 198.659 748.661 199.305 748.382C199.965 748.089 200.522 747.693 200.977 747.194L202.693 748.91C201.989 749.629 201.16 750.193 200.207 750.604C199.253 751.015 198.161 751.22 196.929 751.22ZM208.72 751.22C207.767 751.22 206.901 750.978 206.124 750.494C205.361 750.01 204.753 749.357 204.298 748.536C203.858 747.7 203.638 746.769 203.638 745.742C203.638 744.701 203.858 743.769 204.298 742.948C204.753 742.112 205.361 741.452 206.124 740.968C206.901 740.469 207.767 740.22 208.72 740.22C209.527 740.22 210.238 740.396 210.854 740.748C211.485 741.085 211.983 741.555 212.35 742.156C212.717 742.757 212.9 743.439 212.9 744.202V747.238C212.9 748.001 212.717 748.683 212.35 749.284C211.998 749.885 211.507 750.362 210.876 750.714C210.245 751.051 209.527 751.22 208.72 751.22ZM209.116 748.932C210.011 748.932 210.729 748.631 211.272 748.03C211.829 747.429 212.108 746.659 212.108 745.72C212.108 745.089 211.983 744.532 211.734 744.048C211.485 743.564 211.133 743.19 210.678 742.926C210.238 742.647 209.717 742.508 209.116 742.508C208.529 742.508 208.009 742.647 207.554 742.926C207.114 743.19 206.762 743.564 206.498 744.048C206.249 744.532 206.124 745.089 206.124 745.72C206.124 746.351 206.249 746.908 206.498 747.392C206.762 747.876 207.114 748.257 207.554 748.536C208.009 748.8 208.529 748.932 209.116 748.932ZM211.954 751V748.162L212.372 745.588L211.954 743.036V740.44H214.374V751H211.954ZM217.06 751V740.44H219.48V751H217.06ZM224.078 751V744.708C224.078 744.004 223.858 743.461 223.418 743.08C222.978 742.684 222.435 742.486 221.79 742.486C221.35 742.486 220.954 742.574 220.602 742.75C220.264 742.926 219.993 743.183 219.788 743.52C219.582 743.843 219.48 744.239 219.48 744.708L218.534 744.18C218.534 743.373 218.71 742.677 219.062 742.09C219.414 741.503 219.89 741.049 220.492 740.726C221.093 740.389 221.768 740.22 222.516 740.22C223.264 740.22 223.938 740.381 224.54 740.704C225.141 741.027 225.618 741.481 225.97 742.068C226.322 742.655 226.498 743.359 226.498 744.18V751H224.078ZM231.096 751V744.708C231.096 744.004 230.876 743.461 230.436 743.08C229.996 742.684 229.453 742.486 228.808 742.486C228.382 742.486 227.994 742.574 227.642 742.75C227.29 742.926 227.011 743.183 226.806 743.52C226.6 743.843 226.498 744.239 226.498 744.708L225.134 744.18C225.207 743.373 225.442 742.677 225.838 742.09C226.234 741.503 226.74 741.049 227.356 740.726C227.986 740.389 228.676 740.22 229.424 740.22C230.186 740.22 230.876 740.381 231.492 740.704C232.108 741.027 232.599 741.481 232.966 742.068C233.332 742.655 233.516 743.359 233.516 744.18V751H231.096ZM241.663 751.22C240.856 751.22 240.138 751.051 239.507 750.714C238.876 750.362 238.378 749.885 238.011 749.284C237.659 748.683 237.483 748.001 237.483 747.238V744.202C237.483 743.439 237.666 742.757 238.033 742.156C238.4 741.555 238.898 741.085 239.529 740.748C240.16 740.396 240.871 740.22 241.663 740.22C242.616 740.22 243.474 740.469 244.237 740.968C245.014 741.452 245.623 742.112 246.063 742.948C246.518 743.769 246.745 744.701 246.745 745.742C246.745 746.769 246.518 747.7 246.063 748.536C245.623 749.357 245.014 750.01 244.237 750.494C243.474 750.978 242.616 751.22 241.663 751.22ZM236.009 755.4V740.44H238.429V743.278L238.011 745.852L238.429 748.404V755.4H236.009ZM241.267 748.932C241.854 748.932 242.367 748.8 242.807 748.536C243.262 748.257 243.614 747.876 243.863 747.392C244.127 746.908 244.259 746.351 244.259 745.72C244.259 745.089 244.127 744.532 243.863 744.048C243.614 743.564 243.262 743.19 242.807 742.926C242.367 742.647 241.854 742.508 241.267 742.508C240.68 742.508 240.16 742.647 239.705 742.926C239.25 743.19 238.898 743.564 238.649 744.048C238.4 744.532 238.275 745.089 238.275 745.72C238.275 746.351 238.4 746.908 238.649 747.392C238.898 747.876 239.25 748.257 239.705 748.536C240.16 748.8 240.68 748.932 241.267 748.932ZM253.193 751.22C252.239 751.22 251.374 750.978 250.597 750.494C249.834 750.01 249.225 749.357 248.771 748.536C248.331 747.7 248.111 746.769 248.111 745.742C248.111 744.701 248.331 743.769 248.771 742.948C249.225 742.112 249.834 741.452 250.597 740.968C251.374 740.469 252.239 740.22 253.193 740.22C253.999 740.22 254.711 740.396 255.327 740.748C255.957 741.085 256.456 741.555 256.823 742.156C257.189 742.757 257.373 743.439 257.373 744.202V747.238C257.373 748.001 257.189 748.683 256.823 749.284C256.471 749.885 255.979 750.362 255.349 750.714C254.718 751.051 253.999 751.22 253.193 751.22ZM253.589 748.932C254.483 748.932 255.202 748.631 255.745 748.03C256.302 747.429 256.581 746.659 256.581 745.72C256.581 745.089 256.456 744.532 256.207 744.048C255.957 743.564 255.605 743.19 255.151 742.926C254.711 742.647 254.19 742.508 253.589 742.508C253.002 742.508 252.481 742.647 252.027 742.926C251.587 743.19 251.235 743.564 250.971 744.048C250.721 744.532 250.597 745.089 250.597 745.72C250.597 746.351 250.721 746.908 250.971 747.392C251.235 747.876 251.587 748.257 252.027 748.536C252.481 748.8 253.002 748.932 253.589 748.932ZM256.427 751V748.162L256.845 745.588L256.427 743.036V740.44H258.847V751H256.427ZM261.554 751V740.44H263.974V751H261.554ZM262.764 738.504C262.354 738.504 262.009 738.365 261.73 738.086C261.466 737.807 261.334 737.463 261.334 737.052C261.334 736.641 261.466 736.297 261.73 736.018C262.009 735.739 262.354 735.6 262.764 735.6C263.19 735.6 263.534 735.739 263.798 736.018C264.062 736.297 264.194 736.641 264.194 737.052C264.194 737.463 264.062 737.807 263.798 738.086C263.534 738.365 263.19 738.504 262.764 738.504ZM271.089 755.62C269.974 755.62 268.999 755.415 268.163 755.004C267.327 754.608 266.652 754.043 266.139 753.31L267.723 751.726C268.148 752.254 268.632 752.65 269.175 752.914C269.717 753.178 270.37 753.31 271.133 753.31C272.086 753.31 272.841 753.061 273.399 752.562C273.956 752.078 274.235 751.411 274.235 750.56V747.964L274.653 745.632L274.235 743.278V740.44H276.655V750.56C276.655 751.572 276.42 752.452 275.951 753.2C275.481 753.963 274.829 754.557 273.993 754.982C273.157 755.407 272.189 755.62 271.089 755.62ZM270.979 750.78C270.04 750.78 269.189 750.553 268.427 750.098C267.679 749.629 267.085 748.991 266.645 748.184C266.219 747.377 266.007 746.475 266.007 745.478C266.007 744.481 266.219 743.586 266.645 742.794C267.085 742.002 267.679 741.379 268.427 740.924C269.189 740.455 270.04 740.22 270.979 740.22C271.815 740.22 272.548 740.389 273.179 740.726C273.809 741.063 274.301 741.533 274.653 742.134C275.005 742.721 275.181 743.41 275.181 744.202V746.798C275.181 747.575 274.997 748.265 274.631 748.866C274.279 749.467 273.787 749.937 273.157 750.274C272.526 750.611 271.8 750.78 270.979 750.78ZM271.463 748.492C272.049 748.492 272.563 748.367 273.003 748.118C273.443 747.869 273.78 747.524 274.015 747.084C274.264 746.629 274.389 746.101 274.389 745.5C274.389 744.899 274.264 744.378 274.015 743.938C273.78 743.483 273.443 743.131 273.003 742.882C272.563 742.633 272.049 742.508 271.463 742.508C270.876 742.508 270.355 742.633 269.901 742.882C269.461 743.131 269.116 743.483 268.867 743.938C268.617 744.378 268.493 744.899 268.493 745.5C268.493 746.087 268.617 746.607 268.867 747.062C269.116 747.517 269.461 747.869 269.901 748.118C270.355 748.367 270.876 748.492 271.463 748.492ZM286.581 751V744.906C286.581 744.202 286.354 743.623 285.899 743.168C285.459 742.713 284.887 742.486 284.183 742.486C283.714 742.486 283.296 742.589 282.929 742.794C282.562 742.999 282.276 743.285 282.071 743.652C281.866 744.019 281.763 744.437 281.763 744.906L280.817 744.378C280.817 743.571 280.993 742.86 281.345 742.244C281.697 741.613 282.181 741.122 282.797 740.77C283.428 740.403 284.132 740.22 284.909 740.22C285.701 740.22 286.405 740.425 287.021 740.836C287.637 741.232 288.121 741.753 288.473 742.398C288.825 743.029 289.001 743.689 289.001 744.378V751H286.581ZM279.343 751V740.44H281.763V751H279.343ZM146.266 783V767.6H148.796V783H146.266ZM148.004 783V780.69H156.056V783H148.004ZM162.088 783.22C161.135 783.22 160.27 782.978 159.492 782.494C158.73 782.01 158.121 781.357 157.666 780.536C157.226 779.7 157.006 778.769 157.006 777.742C157.006 776.701 157.226 775.769 157.666 774.948C158.121 774.112 158.73 773.452 159.492 772.968C160.27 772.469 161.135 772.22 162.088 772.22C162.895 772.22 163.606 772.396 164.222 772.748C164.853 773.085 165.352 773.555 165.718 774.156C166.085 774.757 166.268 775.439 166.268 776.202V779.238C166.268 780.001 166.085 780.683 165.718 781.284C165.366 781.885 164.875 782.362 164.244 782.714C163.614 783.051 162.895 783.22 162.088 783.22ZM162.484 780.932C163.379 780.932 164.098 780.631 164.64 780.03C165.198 779.429 165.476 778.659 165.476 777.72C165.476 777.089 165.352 776.532 165.102 776.048C164.853 775.564 164.501 775.19 164.046 774.926C163.606 774.647 163.086 774.508 162.484 774.508C161.898 774.508 161.377 774.647 160.922 774.926C160.482 775.19 160.13 775.564 159.866 776.048C159.617 776.532 159.492 777.089 159.492 777.72C159.492 778.351 159.617 778.908 159.866 779.392C160.13 779.876 160.482 780.257 160.922 780.536C161.377 780.8 161.898 780.932 162.484 780.932ZM165.322 783V780.162L165.74 777.588L165.322 775.036V772.44H167.742V783H165.322ZM174.762 783.22C173.867 783.22 173.068 783.022 172.364 782.626C171.675 782.23 171.132 781.687 170.736 780.998C170.355 780.294 170.164 779.487 170.164 778.578V772.44H172.584V778.468C172.584 778.981 172.665 779.421 172.826 779.788C173.002 780.14 173.251 780.411 173.574 780.602C173.911 780.793 174.307 780.888 174.762 780.888C175.466 780.888 176.001 780.683 176.368 780.272C176.749 779.847 176.94 779.245 176.94 778.468V772.44H179.36V778.578C179.36 779.502 179.162 780.316 178.766 781.02C178.385 781.709 177.849 782.252 177.16 782.648C176.471 783.029 175.671 783.22 174.762 783.22ZM189.031 783V776.906C189.031 776.202 188.804 775.623 188.349 775.168C187.909 774.713 187.337 774.486 186.633 774.486C186.164 774.486 185.746 774.589 185.379 774.794C185.013 774.999 184.727 775.285 184.521 775.652C184.316 776.019 184.213 776.437 184.213 776.906L183.267 776.378C183.267 775.571 183.443 774.86 183.795 774.244C184.147 773.613 184.631 773.122 185.247 772.77C185.878 772.403 186.582 772.22 187.359 772.22C188.151 772.22 188.855 772.425 189.471 772.836C190.087 773.232 190.571 773.753 190.923 774.398C191.275 775.029 191.451 775.689 191.451 776.378V783H189.031ZM181.793 783V772.44H184.213V783H181.793ZM198.772 783.22C197.731 783.22 196.785 782.978 195.934 782.494C195.098 782.01 194.438 781.35 193.954 780.514C193.47 779.678 193.228 778.747 193.228 777.72C193.228 776.679 193.47 775.747 193.954 774.926C194.438 774.09 195.098 773.43 195.934 772.946C196.785 772.462 197.731 772.22 198.772 772.22C199.594 772.22 200.356 772.381 201.06 772.704C201.779 773.012 202.388 773.459 202.886 774.046L201.302 775.652C200.994 775.285 200.62 775.014 200.18 774.838C199.755 774.647 199.286 774.552 198.772 774.552C198.171 774.552 197.636 774.691 197.166 774.97C196.712 775.234 196.352 775.601 196.088 776.07C195.839 776.539 195.714 777.089 195.714 777.72C195.714 778.336 195.839 778.886 196.088 779.37C196.352 779.839 196.712 780.213 197.166 780.492C197.636 780.756 198.171 780.888 198.772 780.888C199.286 780.888 199.755 780.8 200.18 780.624C200.62 780.433 200.994 780.155 201.302 779.788L202.886 781.394C202.388 781.981 201.779 782.435 201.06 782.758C200.356 783.066 199.594 783.22 198.772 783.22ZM211.869 783V776.906C211.869 776.202 211.642 775.623 211.187 775.168C210.747 774.713 210.175 774.486 209.471 774.486C209.002 774.486 208.584 774.589 208.217 774.794C207.85 774.999 207.564 775.285 207.359 775.652C207.154 776.019 207.051 776.437 207.051 776.906L206.105 776.378C206.105 775.571 206.281 774.86 206.633 774.244C206.985 773.613 207.469 773.122 208.085 772.77C208.716 772.403 209.42 772.22 210.197 772.22C210.989 772.22 211.693 772.396 212.309 772.748C212.925 773.1 213.409 773.591 213.761 774.222C214.113 774.838 214.289 775.557 214.289 776.378V783H211.869ZM204.631 783V767.16H207.051V783H204.631Z" fill="#0564F2"/>
</g>
<defs>
<linearGradient id="paint0_linear_590_612" x1="186.75" y1="-30.4461" x2="444.976" y2="0.421397" gradientUnits="userSpaceOnUse">
<stop stop-color="#C2F1FF"/>
<stop offset="1" stop-color="#B596FF" stop-opacity="0.4"/>
</linearGradient>
<clipPath id="clip0_590_612">
<rect width="360" height="836" fill="white"/>
</clipPath>
<clipPath id="clip1_590_612">
<rect width="63" height="62" fill="white" transform="translate(148.5 122)"/>
</clipPath>
<clipPath id="clip2_590_612">
<rect width="63" height="62" fill="white" transform="translate(148.5 276)"/>
</clipPath>
<clipPath id="clip3_590_612">
<rect width="63" height="62" fill="white" transform="translate(148.5 469)"/>
</clipPath>
<clipPath id="clip4_590_612">
<rect width="63" height="62" fill="white" transform="translate(148.5 658)"/>
</clipPath>
</defs>
</svg>
